<svg width="493" height="479" viewBox="0 0 493 479" fill="none" xmlns="http://www.w3.org/2000/svg">
<g opacity="0.2">
<path opacity="0.2" d="M206.51 366.124C320.562 366.124 413.02 364.176 413.02 361.773C413.02 359.37 320.562 357.422 206.51 357.422C92.4576 357.422 0 359.37 0 361.773C0 364.176 92.4576 366.124 206.51 366.124Z" fill="#9677EF"/>
<path opacity="0.2" d="M289.057 438.897C344.401 438.897 389.266 435.66 389.266 431.668C389.266 427.675 344.401 424.438 289.057 424.438C233.713 424.438 188.848 427.675 188.848 431.668C188.848 435.66 233.713 438.897 289.057 438.897Z" fill="#9677EF"/>
<path opacity="0.2" d="M362.795 391C392.299 391 416.216 388.921 416.216 386.357C416.216 383.793 392.299 381.714 362.795 381.714C333.292 381.714 309.375 383.793 309.375 386.357C309.375 388.921 333.292 391 362.795 391Z" fill="#9677EF"/>
<path opacity="0.2" d="M149.834 387.456C178.122 387.456 201.054 385.023 201.054 382.021C201.054 379.02 178.122 376.587 149.834 376.587C121.545 376.587 98.6133 379.02 98.6133 382.021C98.6133 385.023 121.545 387.456 149.834 387.456Z" fill="#9677EF"/>
</g>
<path d="M340.113 422.854C349.269 396.627 380.66 390.991 380.66 390.991C380.66 390.991 373.466 419.82 360.604 428.923H339.023L340.113 422.854Z" fill="#155263"/>
<path d="M346.328 428.873C346.328 428.873 355.629 410.088 365.511 405.029C365.511 405.029 355.484 415.722 350.107 428.728L346.328 428.873Z" fill="#123F49"/>
<path d="M389.642 430.587C405.33 413.52 397.635 392.334 397.635 392.334C397.635 392.334 359.448 406.459 352.344 429.704L389.642 430.587Z" fill="#1B687A"/>
<path d="M368.027 430.157L383.613 412.109L374.143 430.353L368.027 430.157Z" fill="#155263"/>
<path d="M250.938 357.367C279.918 323.253 268.313 284.168 289.305 282.878C315.378 281.276 309.283 327.201 323.148 326.296C337.013 325.391 341.31 340.552 320.956 349.277C300.602 358.003 250.938 357.367 250.938 357.367Z" fill="#175B66"/>
<path d="M177.461 357.342C238.108 345.375 233.403 288.219 276.062 317.116C309.587 339.826 308.237 261.979 346.607 284.548C390.971 310.643 381.639 357.342 381.639 357.342H177.461Z" fill="#1B687A"/>
<path d="M261.035 357.319C291.432 350.156 295.182 326.288 309.768 332.417C324.353 338.545 321.019 353.413 321.019 353.413C321.019 353.413 327.591 335.789 334.932 335.097C342.272 334.404 366.721 357.319 366.721 357.319H261.035Z" fill="#2D7F8C"/>
<path d="M117.09 357.367C146.062 323.253 134.46 284.168 155.445 282.878C181.51 281.276 175.416 327.201 189.277 326.296C203.138 325.391 207.433 340.552 187.086 349.277C166.739 358.003 117.09 357.367 117.09 357.367Z" fill="#175B66"/>
<path d="M43.3984 357.342C104.025 345.375 99.3222 288.219 141.968 317.116C175.481 339.826 174.132 261.979 212.489 284.548C256.839 310.643 247.51 357.342 247.51 357.342H43.3984Z" fill="#1B687A"/>
<path d="M127.187 357.319C157.599 350.156 161.352 326.288 175.945 332.417C190.538 338.545 187.202 353.413 187.202 353.413C187.202 353.413 193.777 335.789 201.122 335.097C208.466 334.404 232.927 357.319 232.927 357.319H127.187Z" fill="#2D7F8C"/>
<path d="M243.174 39.7976C243.173 37.9418 242.497 36.1489 241.27 34.751C240.042 33.353 238.347 32.4447 236.498 32.1941C236.146 28.7784 234.533 25.6139 231.97 23.3129C229.408 21.012 226.078 19.7382 222.625 19.738C222.214 19.738 221.808 19.7593 221.406 19.7939C221.227 14.646 219.105 9.75379 215.464 6.09029C211.823 2.4268 206.929 0.260412 201.755 0.021993C196.581 -0.216426 191.506 1.49059 187.54 4.80354C183.573 8.1165 181.006 12.7927 180.349 17.9021C179.17 17.2055 177.802 16.8924 176.436 17.0063C175.07 17.1203 173.774 17.6557 172.728 18.5377C171.683 19.4197 170.94 20.6044 170.605 21.9263C170.269 23.2483 170.357 24.6414 170.855 25.9114C170.453 25.8665 170.049 25.8436 169.644 25.843C166.796 25.843 164.061 26.9543 162.028 28.938C159.995 30.9216 158.826 33.6193 158.771 36.4513C158.657 42.5128 163.834 47.4723 169.929 47.4723H235.446C237.462 47.4798 239.402 46.7001 240.846 45.301C242.291 43.9018 243.126 41.9948 243.172 39.9898C243.173 39.926 243.174 39.862 243.174 39.7976Z" fill="white"/>
<path d="M363.536 109.25C363.536 108.072 363.107 106.934 362.329 106.047C361.55 105.16 360.475 104.583 359.302 104.424C359.079 102.257 358.056 100.248 356.43 98.7877C354.805 97.3273 352.692 96.5188 350.502 96.5187C350.242 96.5187 349.984 96.5324 349.729 96.5543C349.613 93.2886 348.267 90.1857 345.957 87.8624C343.648 85.539 340.545 84.1652 337.264 84.014C333.984 83.8627 330.766 84.9451 328.251 87.046C325.736 89.1469 324.107 92.1126 323.688 95.3537C322.94 94.9117 322.073 94.7131 321.206 94.7854C320.34 94.8578 319.517 95.1975 318.854 95.7573C318.191 96.3171 317.72 97.0689 317.507 97.9078C317.294 98.7467 317.35 99.6309 317.666 100.437C317.411 100.408 317.155 100.394 316.898 100.394C315.091 100.394 313.357 101.099 312.067 102.358C310.778 103.617 310.036 105.329 310.001 107.126C309.929 110.973 313.212 114.121 317.079 114.121H358.636C359.915 114.126 361.145 113.631 362.061 112.743C362.977 111.855 363.507 110.645 363.536 109.372C363.536 109.331 363.536 109.291 363.536 109.25Z" fill="white"/>
<path d="M409.357 164.322L398.105 156.048C399.047 152.153 401.466 148.772 404.856 146.612C408.247 144.452 412.346 143.682 416.294 144.462L406.409 156.635L409.357 164.322Z" fill="#41B2C4"/>
<path d="M399.716 164.429L368.811 202.413C367.578 203.929 367.002 205.869 367.209 207.807C367.416 209.744 368.39 211.521 369.916 212.745C371.442 213.97 373.396 214.542 375.347 214.336C377.298 214.131 379.087 213.164 380.32 211.648L411.225 173.663L399.716 164.429Z" fill="#41B2C4"/>
<path d="M397.78 178.302C397.236 177.865 396.61 177.538 395.938 177.341C395.267 177.144 394.563 177.08 393.866 177.154C393.17 177.227 392.495 177.436 391.88 177.769C391.265 178.102 390.722 178.552 390.282 179.094L371.36 202.387C370.471 203.481 370.056 204.882 370.205 206.28C370.355 207.679 371.057 208.961 372.156 209.845V209.845C373.256 210.729 374.664 211.142 376.07 210.994C377.476 210.845 378.765 210.147 379.654 209.053L398.576 185.76C399.016 185.218 399.345 184.596 399.543 183.928C399.741 183.26 399.805 182.56 399.731 181.867C399.657 181.175 399.447 180.503 399.112 179.892C398.777 179.28 398.325 178.74 397.78 178.302V178.302Z" fill="#283149"/>
<path d="M376.904 207.177C376.689 207.444 376.4 207.642 376.073 207.744C375.746 207.846 375.397 207.849 375.069 207.752C374.74 207.654 374.448 207.461 374.229 207.197C374.01 206.933 373.874 206.61 373.838 206.268C373.801 205.926 373.867 205.581 374.026 205.276C374.185 204.972 374.43 204.722 374.731 204.557C375.032 204.393 375.374 204.322 375.715 204.353C376.056 204.384 376.38 204.516 376.646 204.732C377.003 205.022 377.23 205.442 377.279 205.901C377.327 206.359 377.192 206.818 376.904 207.177V207.177Z" fill="#FFD9E8"/>
<path d="M425.373 169.322C423.15 172.056 420.058 173.957 416.605 174.713C413.151 175.468 409.542 175.033 406.37 173.479C403.199 171.926 400.653 169.345 399.151 166.162C397.649 162.979 397.281 159.383 398.106 155.964L409.355 164.231L417.675 165.604L427.558 153.442C428.685 156.036 429.078 158.886 428.693 161.685C428.308 164.484 427.16 167.126 425.373 169.322Z" fill="#41B2C4"/>
<g style="mix-blend-mode:multiply">
<g style="mix-blend-mode:multiply">
<g style="mix-blend-mode:multiply">
<g style="mix-blend-mode:multiply">
<g style="mix-blend-mode:multiply">
<g style="mix-blend-mode:multiply">
<path d="M113.427 142.494V130.31H103.665C103.045 127.737 102.017 125.279 100.622 123.026L107.534 116.153L98.8754 107.542L91.9611 114.416C89.692 113.035 87.2209 112.014 84.6364 111.389V101.685H72.4022V111.389C69.8126 112.018 67.3355 113.039 65.0576 114.416L58.1647 107.542L49.5046 116.153L56.3975 123.026C55.0157 125.284 53.9953 127.741 53.3731 130.31H43.6133V142.494H53.3731C53.9988 145.062 55.0189 147.519 56.3975 149.777L49.5046 156.631L58.1647 165.242L65.0583 158.388C67.337 159.759 69.8141 160.773 72.4028 161.395V171.1H84.637V161.395C87.2206 160.777 89.6917 159.762 91.9617 158.388L98.876 165.242L107.534 156.631L100.622 149.778C102.014 147.524 103.041 145.066 103.665 142.494L113.427 142.494ZM78.5097 151.554C75.4957 151.554 72.5494 150.666 70.0433 149.001C67.5372 147.336 65.584 144.969 64.4306 142.2C63.2772 139.432 62.9754 136.385 63.5634 133.446C64.1514 130.506 65.6028 127.806 67.734 125.687C69.8652 123.568 72.5806 122.125 75.5367 121.54C78.4928 120.956 81.5568 121.256 84.3414 122.403C87.126 123.55 89.506 125.492 91.1805 127.983C92.855 130.475 93.7488 133.405 93.7488 136.402C93.7491 138.392 93.3551 140.362 92.5894 142.201C91.8236 144.039 90.7011 145.71 89.286 147.117C87.8708 148.524 86.1908 149.64 84.3418 150.401C82.4927 151.163 80.511 151.555 78.5097 151.554V151.554Z" fill="#DAAAFE"/>
</g>
</g>
</g>
</g>
</g>
<g style="mix-blend-mode:multiply">
<g style="mix-blend-mode:multiply">
<path d="M183.062 125.151V112.97H173.299C172.679 110.398 171.651 107.94 170.254 105.688L177.169 98.8162L168.505 90.2071L161.589 97.0787C159.319 95.6991 156.847 94.6783 154.262 94.0528V84.3506H142.023V94.0528C139.432 94.6818 136.954 95.7024 134.675 97.0787L127.78 90.2071L119.116 98.8162L126.012 105.688C124.63 107.945 123.61 110.401 122.987 112.97H113.223V125.151H122.987C123.613 127.718 124.633 130.174 126.012 132.433L119.116 139.285L127.78 147.894L134.675 141.042C136.955 142.412 139.433 143.426 142.023 144.047V153.749H154.262V144.047C156.846 143.429 159.319 142.414 161.589 141.041L168.505 147.893L177.168 139.284L170.253 132.432C171.647 130.179 172.675 127.722 173.299 125.151H183.062ZM148.131 134.209C145.116 134.209 142.168 133.321 139.661 131.656C137.154 129.992 135.2 127.626 134.046 124.858C132.892 122.089 132.59 119.043 133.179 116.105C133.767 113.166 135.219 110.467 137.351 108.348C139.483 106.229 142.199 104.787 145.157 104.202C148.114 103.618 151.179 103.918 153.965 105.064C156.75 106.211 159.131 108.153 160.807 110.644C162.482 113.135 163.376 116.064 163.376 119.06C163.376 121.05 162.982 123.02 162.216 124.858C161.45 126.696 160.327 128.366 158.912 129.772C157.496 131.179 155.816 132.295 153.966 133.056C152.117 133.818 150.134 134.209 148.133 134.209H148.131Z" fill="#DAAAFE"/>
</g>
</g>
<g style="mix-blend-mode:multiply">
<g style="mix-blend-mode:multiply">
<path d="M153.355 177.48V169.684H147.114C146.717 168.038 146.059 166.465 145.166 165.023L149.587 160.626L144.049 155.116L139.628 159.513C138.177 158.63 136.597 157.977 134.944 157.576V151.367H127.121V157.577C125.465 157.98 123.881 158.633 122.424 159.514L118.016 155.116L112.478 160.626L116.886 165.023C116.003 166.468 115.35 168.04 114.952 169.684H108.711V177.48H114.952C115.353 179.123 116.005 180.695 116.886 182.141L112.478 186.526L118.016 192.037L122.424 187.652C123.882 188.529 125.466 189.178 127.121 189.576V195.785H134.945V189.575C136.597 189.179 138.177 188.53 139.629 187.651L144.049 192.037L149.587 186.527L145.167 182.142C146.058 180.699 146.715 179.127 147.114 177.481L153.355 177.48ZM131.027 183.278C129.099 183.278 127.215 182.709 125.613 181.644C124.01 180.578 122.761 179.064 122.023 177.293C121.286 175.521 121.093 173.571 121.469 171.691C121.845 169.81 122.773 168.082 124.136 166.726C125.499 165.37 127.235 164.447 129.125 164.073C131.016 163.699 132.975 163.891 134.756 164.625C136.537 165.358 138.059 166.601 139.129 168.196C140.2 169.79 140.772 171.665 140.772 173.582C140.772 174.855 140.52 176.116 140.03 177.293C139.541 178.469 138.823 179.538 137.918 180.438C137.013 181.339 135.939 182.053 134.756 182.54C133.574 183.027 132.306 183.278 131.027 183.278V183.278Z" fill="#DAAAFE"/>
</g>
</g>
</g>
<path d="M245.635 319.824H226.66V349.112H245.635V319.824Z" fill="#39283D"/>
<path d="M221.122 346.314H250.964C252.353 346.314 253.728 346.585 255.011 347.112C256.294 347.639 257.46 348.412 258.442 349.386C259.424 350.36 260.203 351.516 260.735 352.789C261.266 354.062 261.54 355.426 261.54 356.804V356.804C261.54 357.003 261.46 357.194 261.318 357.334C261.176 357.475 260.984 357.554 260.783 357.554H211.304C211.103 357.554 210.911 357.475 210.769 357.334C210.627 357.194 210.547 357.003 210.547 356.804V356.804C210.547 355.426 210.82 354.062 211.352 352.789C211.883 351.517 212.662 350.36 213.644 349.386C214.626 348.412 215.792 347.639 217.075 347.112C218.358 346.585 219.733 346.314 221.122 346.314V346.314Z" fill="#4E3654"/>
<path d="M338.7 189.698H133.477C127.393 189.698 122.461 194.602 122.461 200.652V321.321C122.461 327.371 127.393 332.275 133.477 332.275H338.7C344.784 332.275 349.716 327.371 349.716 321.321V200.652C349.716 194.602 344.784 189.698 338.7 189.698Z" fill="#4E3654"/>
<path d="M341.872 197.022H130.41V313.716H341.872V197.022Z" fill="url(#paint0_linear)"/>
<path d="M240.499 324.089C240.876 321.786 239.296 319.617 236.968 319.244C234.641 318.87 232.448 320.434 232.07 322.736C231.693 325.038 233.273 327.207 235.601 327.581C237.928 327.955 240.121 326.391 240.499 324.089Z" fill="#39283D"/>
<path d="M274.412 281.503H206.161C205.919 281.503 205.679 281.456 205.455 281.364C205.231 281.271 205.028 281.136 204.857 280.966C204.686 280.795 204.55 280.593 204.457 280.37C204.364 280.147 204.317 279.909 204.317 279.668V279.668C204.317 279.427 204.364 279.188 204.457 278.965C204.55 278.742 204.686 278.54 204.857 278.37C205.028 278.199 205.231 278.064 205.455 277.972C205.679 277.88 205.919 277.832 206.161 277.832H274.412C274.901 277.832 275.371 278.025 275.717 278.37C276.063 278.714 276.257 279.181 276.257 279.668V279.668C276.257 280.155 276.063 280.621 275.717 280.966C275.371 281.31 274.901 281.503 274.412 281.503V281.503Z" fill="white"/>
<path d="M243.618 281.503H206.16C205.918 281.503 205.678 281.456 205.455 281.364C205.231 281.271 205.028 281.136 204.857 280.966C204.685 280.795 204.55 280.593 204.457 280.37C204.364 280.147 204.317 279.909 204.317 279.668V279.668C204.317 279.427 204.364 279.188 204.457 278.965C204.55 278.742 204.685 278.54 204.857 278.37C205.028 278.199 205.231 278.064 205.455 277.972C205.678 277.88 205.918 277.832 206.16 277.832H243.618C243.86 277.832 244.1 277.88 244.324 277.972C244.547 278.064 244.751 278.199 244.922 278.37C245.093 278.54 245.229 278.743 245.321 278.965C245.414 279.188 245.462 279.427 245.462 279.668V279.668C245.462 279.909 245.414 280.147 245.321 280.37C245.229 280.593 245.093 280.795 244.922 280.966C244.751 281.136 244.547 281.271 244.324 281.364C244.1 281.456 243.86 281.503 243.618 281.503V281.503Z" fill="#F9ED32"/>
<path d="M226.118 269.654L225.304 274.24H227.112L227.041 274.631H224.727L225.612 269.654L226.118 269.654Z" fill="white"/>
<path d="M229.377 274.773C229.16 274.79 228.942 274.76 228.738 274.686C228.534 274.612 228.348 274.495 228.193 274.343C228.037 274.192 227.916 274.009 227.838 273.806C227.759 273.604 227.725 273.388 227.737 273.171C227.726 272.858 227.779 272.547 227.892 272.255C228.004 271.962 228.175 271.696 228.393 271.471C228.611 271.245 228.872 271.066 229.161 270.943C229.449 270.821 229.76 270.757 230.074 270.757C230.291 270.74 230.509 270.77 230.713 270.844C230.918 270.918 231.104 271.035 231.26 271.186C231.415 271.338 231.537 271.521 231.616 271.723C231.695 271.925 231.73 272.142 231.719 272.359C231.728 272.672 231.675 272.983 231.561 273.275C231.448 273.567 231.277 273.834 231.059 274.059C230.84 274.284 230.579 274.463 230.29 274.586C230.001 274.709 229.691 274.772 229.377 274.773V274.773ZM229.435 274.353C230.48 274.353 231.206 273.43 231.206 272.388C231.218 272.227 231.195 272.065 231.139 271.914C231.082 271.762 230.994 271.625 230.879 271.511C230.765 271.396 230.627 271.308 230.476 271.252C230.324 271.196 230.162 271.173 230 271.185C228.955 271.185 228.253 272.108 228.253 273.15C228.24 273.31 228.261 273.47 228.315 273.62C228.37 273.77 228.456 273.907 228.568 274.021C228.68 274.135 228.815 274.224 228.965 274.281C229.115 274.338 229.275 274.363 229.435 274.353V274.353Z" fill="white"/>
<path d="M234.959 270.752C235.753 270.752 236.214 271.178 236.352 271.678L236.502 270.81H237.008L236.314 274.757H235.811L235.961 273.883C235.776 274.172 235.522 274.409 235.22 274.572C234.919 274.736 234.581 274.819 234.239 274.816C233.162 274.816 232.5 274.012 232.717 272.777C232.785 272.226 233.05 271.718 233.462 271.346C233.873 270.974 234.405 270.763 234.959 270.752V270.752ZM234.975 271.194C234.542 271.2 234.127 271.365 233.807 271.656C233.487 271.948 233.284 272.346 233.237 272.777C233.054 273.774 233.59 274.374 234.41 274.374C234.842 274.36 235.255 274.192 235.575 273.901C235.894 273.61 236.101 273.214 236.156 272.785C236.336 271.802 235.782 271.194 234.975 271.194Z" fill="white"/>
<path d="M239.463 270.739C239.76 270.721 240.055 270.799 240.304 270.962C240.553 271.125 240.743 271.363 240.846 271.642L241.239 269.409H241.739L240.802 274.704H240.302L240.458 273.83C240.275 274.118 240.022 274.355 239.722 274.518C239.422 274.681 239.086 274.765 238.745 274.762C237.671 274.762 237.013 273.967 237.228 272.744C237.297 272.197 237.561 271.694 237.971 271.325C238.382 270.957 238.911 270.749 239.463 270.739ZM239.471 271.176C239.041 271.183 238.629 271.346 238.311 271.634C237.993 271.923 237.792 272.318 237.744 272.744C237.564 273.731 238.096 274.325 238.91 274.325C239.339 274.311 239.749 274.145 240.067 273.857C240.384 273.569 240.589 273.177 240.644 272.752C240.822 271.778 240.272 271.176 239.471 271.176Z" fill="white"/>
<path d="M242.619 270.755H243.131L242.426 274.644H241.914L242.619 270.755ZM242.705 269.65C242.723 269.549 242.777 269.457 242.857 269.391C242.938 269.325 243.04 269.288 243.145 269.288C243.192 269.285 243.239 269.293 243.282 269.311C243.325 269.329 243.363 269.357 243.393 269.393C243.423 269.428 243.443 269.47 243.453 269.515C243.462 269.56 243.461 269.606 243.448 269.65C243.431 269.751 243.378 269.843 243.299 269.911C243.22 269.978 243.119 270.017 243.014 270.02C242.966 270.022 242.919 270.013 242.875 269.994C242.832 269.975 242.794 269.946 242.764 269.91C242.734 269.874 242.713 269.832 242.703 269.787C242.693 269.742 242.694 269.695 242.706 269.65H242.705Z" fill="white"/>
<path d="M247.238 272.489C247.39 271.627 246.997 271.185 246.265 271.185C245.519 271.185 244.913 271.64 244.745 272.589V272.568L244.357 274.711H243.848L244.549 270.822H245.058L244.933 271.492C245.103 271.258 245.33 271.069 245.592 270.94C245.855 270.811 246.146 270.747 246.44 270.752C247.338 270.752 247.958 271.294 247.754 272.432L247.338 274.711H246.833L247.238 272.489Z" fill="white"/>
<path d="M250.824 270.752C251.601 270.752 252.078 271.167 252.215 271.658L252.366 270.809H252.872L252.165 274.806C252.087 275.316 251.825 275.781 251.427 276.115C251.029 276.448 250.523 276.628 250.002 276.62C248.987 276.62 248.373 276.106 248.359 275.292H248.856C248.928 275.821 249.352 276.184 250.082 276.184C250.469 276.185 250.844 276.045 251.134 275.791C251.424 275.537 251.611 275.187 251.658 274.806L251.824 273.843C251.64 274.128 251.387 274.362 251.086 274.523C250.786 274.684 250.45 274.767 250.108 274.764C249.028 274.764 248.366 273.971 248.582 272.752C248.651 272.207 248.915 271.705 249.327 271.338C249.739 270.971 250.27 270.763 250.824 270.752V270.752ZM250.84 271.188C250.408 271.194 249.993 271.357 249.673 271.645C249.353 271.933 249.15 272.326 249.103 272.752C248.921 273.736 249.456 274.328 250.276 274.328C250.707 274.314 251.119 274.149 251.439 273.861C251.759 273.574 251.965 273.183 252.02 272.759C252.2 271.788 251.646 271.188 250.84 271.188V271.188Z" fill="white"/>
<path d="M253.182 274.678C253.136 274.679 253.089 274.669 253.047 274.65C253.004 274.63 252.967 274.6 252.938 274.563C252.908 274.526 252.888 274.483 252.878 274.437C252.868 274.391 252.869 274.343 252.88 274.297C252.9 274.195 252.953 274.102 253.032 274.035C253.11 273.968 253.208 273.93 253.311 273.927C253.357 273.924 253.403 273.932 253.446 273.95C253.488 273.969 253.526 273.997 253.555 274.034C253.585 274.07 253.606 274.112 253.616 274.158C253.626 274.204 253.625 274.251 253.613 274.297C253.594 274.4 253.541 274.494 253.463 274.563C253.385 274.632 253.286 274.672 253.182 274.678V274.678Z" fill="white"/>
<path d="M254.699 274.642C254.65 274.643 254.602 274.634 254.558 274.616C254.514 274.597 254.475 274.569 254.444 274.533C254.414 274.498 254.392 274.457 254.382 274.413C254.372 274.369 254.373 274.323 254.385 274.279C254.405 274.182 254.461 274.094 254.542 274.03C254.624 273.966 254.726 273.93 254.833 273.927C254.881 273.924 254.929 273.932 254.973 273.949C255.017 273.967 255.056 273.994 255.087 274.029C255.118 274.063 255.139 274.104 255.149 274.147C255.16 274.191 255.159 274.236 255.147 274.279C255.127 274.378 255.072 274.467 254.991 274.533C254.909 274.598 254.807 274.637 254.699 274.642Z" fill="white"/>
<path d="M255.974 274.693C255.928 274.695 255.882 274.685 255.839 274.665C255.797 274.644 255.76 274.614 255.73 274.577C255.701 274.539 255.681 274.495 255.671 274.447C255.661 274.4 255.662 274.351 255.673 274.304C255.693 274.2 255.746 274.106 255.824 274.037C255.902 273.969 256 273.93 256.102 273.927C256.148 273.924 256.194 273.932 256.237 273.951C256.279 273.97 256.316 273.999 256.346 274.036C256.375 274.073 256.395 274.116 256.406 274.163C256.416 274.21 256.415 274.258 256.403 274.304C256.384 274.41 256.331 274.505 256.254 274.576C256.176 274.646 256.077 274.688 255.974 274.693V274.693Z" fill="white"/>
<g style="mix-blend-mode:screen">
<path style="mix-blend-mode:screen" d="M241.182 259.047C237.481 259.199 233.824 258.203 230.717 256.197C227.61 254.191 225.207 251.273 223.84 247.848C222.472 244.422 222.209 240.659 223.086 237.078C223.963 233.498 225.937 230.276 228.734 227.861C231.532 225.446 235.015 223.955 238.701 223.596C242.387 223.236 246.095 224.026 249.31 225.856C252.526 227.685 255.09 230.464 256.649 233.807C258.207 237.15 258.683 240.893 258.01 244.517C257.857 245.333 257.385 246.056 256.697 246.526C256.009 246.996 255.162 247.175 254.342 247.023C253.521 246.871 252.795 246.402 252.323 245.717C251.851 245.033 251.671 244.19 251.823 243.373C252.319 240.687 251.839 237.913 250.467 235.548C249.096 233.182 246.923 231.379 244.337 230.462C241.752 229.545 238.923 229.573 236.357 230.542C233.79 231.51 231.654 233.356 230.331 235.749C229.007 238.141 228.582 240.924 229.132 243.6C229.683 246.275 231.172 248.669 233.334 250.352C235.495 252.035 238.188 252.897 240.931 252.785C243.673 252.673 246.286 251.593 248.301 249.739C248.604 249.46 248.96 249.243 249.347 249.1C249.734 248.957 250.146 248.892 250.559 248.908C250.972 248.923 251.377 249.02 251.753 249.191C252.128 249.363 252.466 249.607 252.746 249.908C253.027 250.21 253.245 250.563 253.389 250.948C253.532 251.334 253.598 251.744 253.582 252.154C253.566 252.565 253.469 252.969 253.297 253.342C253.124 253.715 252.88 254.051 252.577 254.331C249.46 257.197 245.422 258.868 241.182 259.047V259.047Z" fill="url(#paint1_linear)"/>
</g>
<g style="mix-blend-mode:screen">
<g style="mix-blend-mode:screen">
<path d="M241.182 259.047C237.481 259.199 233.824 258.203 230.717 256.197C227.61 254.191 225.207 251.273 223.84 247.848C222.472 244.422 222.209 240.659 223.086 237.078C223.963 233.498 225.937 230.276 228.734 227.861C231.532 225.446 235.015 223.955 238.701 223.596C242.387 223.236 246.095 224.026 249.31 225.856C252.526 227.685 255.09 230.464 256.649 233.807C258.207 237.15 258.683 240.893 258.01 244.517C257.857 245.333 257.385 246.056 256.697 246.526C256.009 246.996 255.162 247.175 254.342 247.023C253.521 246.871 252.795 246.402 252.323 245.717C251.851 245.033 251.671 244.19 251.823 243.373C252.319 240.687 251.839 237.913 250.467 235.548C249.096 233.182 246.923 231.379 244.337 230.462C241.752 229.545 238.923 229.573 236.357 230.542C233.79 231.51 231.654 233.356 230.331 235.749C229.007 238.141 228.582 240.924 229.132 243.6C229.683 246.275 231.172 248.669 233.334 250.352C235.495 252.035 238.188 252.897 240.931 252.785C243.673 252.673 246.286 251.593 248.301 249.739C248.604 249.46 248.96 249.243 249.347 249.1C249.734 248.957 250.146 248.892 250.559 248.908C250.972 248.923 251.377 249.02 251.753 249.191C252.128 249.363 252.466 249.607 252.746 249.908C253.027 250.21 253.245 250.563 253.389 250.948C253.532 251.334 253.598 251.744 253.582 252.154C253.566 252.565 253.469 252.969 253.297 253.342C253.124 253.715 252.88 254.051 252.577 254.331C249.46 257.197 245.422 258.868 241.182 259.047V259.047Z" fill="#606060"/>
</g>
</g>
<path opacity="0.82" d="M261.68 185.271C261.679 191.375 263.5 197.341 266.911 202.416C270.323 207.491 275.173 211.446 280.847 213.782C286.522 216.118 292.766 216.729 298.79 215.539C304.814 214.348 310.347 211.409 314.69 207.094C319.033 202.778 321.991 197.28 323.189 191.294C324.387 185.308 323.771 179.103 321.421 173.465C319.07 167.827 315.089 163.008 309.982 159.617C304.875 156.227 298.87 154.418 292.728 154.419C288.651 154.419 284.613 155.217 280.846 156.767C277.079 158.318 273.656 160.59 270.773 163.455C267.89 166.32 265.603 169.721 264.043 173.465C262.482 177.208 261.68 181.22 261.68 185.271V185.271ZM269.003 185.271C269.004 180.608 270.396 176.049 273.004 172.172C275.612 168.295 279.319 165.273 283.655 163.489C287.992 161.706 292.763 161.239 297.366 162.15C301.969 163.061 306.197 165.307 309.515 168.605C312.833 171.903 315.092 176.105 316.007 180.679C316.922 185.253 316.451 189.994 314.654 194.303C312.857 198.611 309.815 202.293 305.912 204.883C302.01 207.474 297.422 208.856 292.728 208.855C289.612 208.855 286.526 208.245 283.647 207.059C280.768 205.874 278.153 204.137 275.949 201.947C273.746 199.757 271.999 197.157 270.807 194.296C269.615 191.434 269.002 188.368 269.003 185.271V185.271Z" fill="#F2EDFF"/>
<path opacity="0.82" d="M235.478 160.376C239.279 160.376 242.361 157.321 242.361 153.552C242.361 149.784 239.279 146.729 235.478 146.729C231.676 146.729 228.594 149.784 228.594 153.552C228.594 157.321 231.676 160.376 235.478 160.376Z" fill="#F2EDFF"/>
<path opacity="0.82" d="M266.071 227.173H316.035V224.403H266.071V227.173Z" fill="#F2EDFF"/>
<path opacity="0.82" d="M266.071 235.718H316.035V232.948H266.071V235.718Z" fill="#F2EDFF"/>
<path d="M403.974 434.403L401.93 388.975L488.652 385.856L490.696 431.284L403.974 434.403Z" fill="white"/>
<path d="M406.556 428.621L405.023 394.553C405.002 394.11 405.078 393.668 405.245 393.252C405.413 392.835 405.669 392.453 405.999 392.127C406.329 391.8 406.727 391.536 407.17 391.35C407.612 391.163 408.091 391.058 408.579 391.04L482.208 388.392C483.194 388.358 484.154 388.681 484.877 389.29C485.601 389.899 486.029 390.744 486.068 391.639L487.601 425.707C487.622 426.149 487.546 426.592 487.379 427.008C487.211 427.424 486.955 427.807 486.625 428.133C486.295 428.459 485.897 428.723 485.454 428.91C485.012 429.096 484.533 429.201 484.046 429.22L410.416 431.868C409.431 431.902 408.471 431.579 407.747 430.97C407.023 430.361 406.595 429.516 406.556 428.621V428.621Z" fill="#4DB4E8"/>
<path d="M481.737 395.681C481.134 395.705 480.536 395.566 480.02 395.282C479.504 394.998 479.092 394.58 478.838 394.083C478.583 393.586 478.496 393.032 478.588 392.49C478.681 391.948 478.948 391.443 479.356 391.039C479.765 390.635 480.296 390.351 480.883 390.221C481.47 390.092 482.085 390.124 482.652 390.313C483.219 390.502 483.711 390.84 484.066 391.283C484.421 391.727 484.624 392.256 484.647 392.804C484.68 393.536 484.391 394.249 483.846 394.788C483.3 395.327 482.542 395.648 481.737 395.681V395.681Z" fill="white"/>
<path d="M483.223 427.845C482.62 427.87 482.023 427.731 481.507 427.446C480.991 427.162 480.58 426.745 480.325 426.248C480.07 425.751 479.983 425.196 480.076 424.654C480.168 424.113 480.436 423.608 480.844 423.204C481.253 422.8 481.784 422.516 482.37 422.387C482.957 422.258 483.572 422.29 484.139 422.479C484.705 422.668 485.197 423.005 485.553 423.449C485.908 423.892 486.11 424.421 486.134 424.969C486.166 425.701 485.878 426.414 485.332 426.953C484.787 427.492 484.029 427.813 483.223 427.845V427.845Z" fill="white"/>
<path d="M409.744 397.988C409.141 398.013 408.544 397.874 408.028 397.589C407.512 397.305 407.1 396.888 406.846 396.391C406.591 395.894 406.504 395.339 406.597 394.797C406.689 394.255 406.957 393.751 407.365 393.347C407.774 392.943 408.305 392.659 408.891 392.53C409.478 392.401 410.093 392.433 410.66 392.622C411.226 392.811 411.718 393.149 412.074 393.592C412.429 394.035 412.631 394.564 412.655 395.112C412.687 395.844 412.399 396.557 411.853 397.097C411.308 397.636 410.549 397.956 409.744 397.988V397.988Z" fill="#7676C1"/>
<path d="M411.231 430.154C410.628 430.178 410.031 430.039 409.515 429.755C408.999 429.471 408.587 429.054 408.332 428.557C408.078 428.06 407.991 427.505 408.083 426.963C408.176 426.421 408.443 425.917 408.851 425.513C409.26 425.109 409.791 424.825 410.377 424.696C410.964 424.566 411.579 424.598 412.146 424.787C412.712 424.976 413.204 425.314 413.56 425.757C413.915 426.2 414.117 426.729 414.141 427.277C414.173 428.009 413.885 428.722 413.34 429.261C412.794 429.801 412.036 430.121 411.231 430.154V430.154Z" fill="#7676C1"/>
<path d="M447.125 427.515C453.278 427.28 457.907 419.345 457.465 409.793C457.023 400.24 451.677 392.687 445.524 392.922C439.372 393.157 434.743 401.091 435.185 410.644C435.627 420.196 440.973 427.75 447.125 427.515Z" fill="white"/>
<path d="M464.572 424.318L456.56 424.606C456.494 424.618 456.426 424.617 456.361 424.603C456.296 424.588 456.235 424.561 456.183 424.524C456.13 424.486 456.087 424.439 456.057 424.384C456.026 424.33 456.009 424.271 456.006 424.21C456.004 424.149 456.015 424.089 456.041 424.032C456.066 423.976 456.105 423.926 456.154 423.884C456.203 423.843 456.261 423.811 456.325 423.792C456.389 423.773 456.456 423.767 456.522 423.774L464.535 423.486C464.6 423.474 464.668 423.475 464.733 423.49C464.798 423.504 464.859 423.531 464.912 423.568C464.964 423.606 465.007 423.654 465.038 423.708C465.068 423.762 465.085 423.821 465.088 423.882C465.091 423.943 465.079 424.004 465.053 424.06C465.028 424.116 464.989 424.167 464.94 424.208C464.891 424.249 464.833 424.281 464.769 424.3C464.706 424.319 464.639 424.325 464.572 424.318V424.318Z" fill="white"/>
<path d="M469.48 424.142L466.836 424.239C466.77 424.25 466.703 424.249 466.638 424.234C466.573 424.22 466.512 424.193 466.46 424.155C466.408 424.118 466.365 424.07 466.335 424.016C466.304 423.962 466.287 423.903 466.285 423.842C466.282 423.782 466.294 423.721 466.319 423.665C466.344 423.609 466.383 423.559 466.431 423.517C466.48 423.476 466.538 423.445 466.602 423.426C466.665 423.407 466.732 423.4 466.798 423.407L469.442 423.31C469.508 423.298 469.575 423.3 469.64 423.314C469.705 423.328 469.766 423.355 469.818 423.393C469.87 423.431 469.913 423.478 469.943 423.532C469.974 423.586 469.991 423.645 469.994 423.706C469.996 423.766 469.985 423.827 469.959 423.883C469.934 423.939 469.896 423.989 469.847 424.031C469.798 424.072 469.74 424.104 469.677 424.123C469.613 424.142 469.546 424.148 469.48 424.142V424.142Z" fill="white"/>
<path d="M461.535 425.949L469.548 425.66C469.614 425.667 469.681 425.661 469.745 425.642C469.809 425.623 469.867 425.592 469.916 425.55C469.965 425.509 470.004 425.458 470.029 425.402C470.055 425.346 470.066 425.285 470.064 425.224C470.061 425.164 470.044 425.104 470.013 425.05C469.983 424.996 469.94 424.948 469.887 424.911C469.835 424.873 469.774 424.846 469.709 424.832C469.644 424.818 469.576 424.816 469.51 424.828L461.498 425.116C461.431 425.109 461.364 425.116 461.3 425.135C461.237 425.154 461.179 425.185 461.13 425.226C461.081 425.268 461.042 425.318 461.016 425.375C460.991 425.431 460.979 425.491 460.982 425.552C460.985 425.613 461.002 425.673 461.032 425.727C461.063 425.781 461.106 425.828 461.158 425.866C461.211 425.904 461.272 425.931 461.337 425.945C461.402 425.959 461.47 425.96 461.535 425.949V425.949Z" fill="white"/>
<path d="M456.697 427.668L464.71 427.38C464.776 427.387 464.844 427.381 464.907 427.362C464.971 427.343 465.029 427.311 465.078 427.27C465.127 427.228 465.166 427.178 465.191 427.122C465.217 427.065 465.228 427.005 465.226 426.944C465.223 426.883 465.206 426.824 465.175 426.769C465.145 426.715 465.102 426.668 465.049 426.63C464.997 426.592 464.936 426.566 464.871 426.551C464.806 426.537 464.738 426.536 464.672 426.548L456.66 426.836C456.594 426.829 456.526 426.835 456.463 426.854C456.399 426.873 456.341 426.904 456.292 426.946C456.243 426.987 456.204 427.038 456.179 427.094C456.153 427.15 456.141 427.211 456.144 427.272C456.147 427.332 456.164 427.392 456.194 427.446C456.225 427.5 456.268 427.548 456.32 427.586C456.373 427.623 456.434 427.65 456.499 427.664C456.564 427.679 456.632 427.68 456.697 427.668Z" fill="white"/>
<path d="M456.628 426.125L459.272 426.028C459.338 426.034 459.406 426.028 459.469 426.009C459.532 425.99 459.59 425.958 459.639 425.917C459.688 425.875 459.726 425.825 459.751 425.769C459.777 425.713 459.789 425.652 459.786 425.592C459.783 425.531 459.766 425.472 459.736 425.418C459.705 425.364 459.663 425.316 459.61 425.279C459.558 425.241 459.497 425.214 459.433 425.2C459.368 425.186 459.3 425.184 459.235 425.196L456.591 425.293C456.524 425.286 456.457 425.293 456.394 425.312C456.331 425.331 456.273 425.362 456.224 425.403C456.175 425.445 456.137 425.495 456.111 425.551C456.086 425.607 456.074 425.668 456.077 425.728C456.08 425.789 456.097 425.848 456.127 425.902C456.157 425.956 456.2 426.004 456.252 426.041C456.305 426.079 456.365 426.106 456.43 426.12C456.495 426.135 456.563 426.136 456.628 426.125Z" fill="white"/>
<path d="M431.335 394.172L423.323 394.46C423.257 394.472 423.19 394.47 423.125 394.456C423.06 394.441 423 394.414 422.947 394.377C422.895 394.339 422.852 394.292 422.822 394.238C422.792 394.184 422.774 394.124 422.772 394.064C422.769 394.003 422.781 393.943 422.806 393.887C422.831 393.831 422.87 393.78 422.919 393.739C422.967 393.697 423.025 393.666 423.089 393.647C423.152 393.628 423.219 393.621 423.285 393.628L431.298 393.34C431.363 393.328 431.431 393.33 431.495 393.344C431.56 393.359 431.621 393.386 431.673 393.423C431.726 393.461 431.768 393.508 431.799 393.562C431.829 393.616 431.846 393.676 431.849 393.736C431.851 393.797 431.84 393.857 431.814 393.913C431.789 393.969 431.751 394.02 431.702 394.061C431.653 394.103 431.595 394.134 431.532 394.153C431.468 394.172 431.401 394.179 431.335 394.172V394.172Z" fill="#7676C1"/>
<path d="M436.243 393.995L433.599 394.092C433.533 394.104 433.465 394.103 433.4 394.089C433.335 394.075 433.274 394.048 433.221 394.011C433.168 393.973 433.125 393.925 433.094 393.871C433.064 393.817 433.047 393.757 433.044 393.696C433.041 393.635 433.053 393.575 433.079 393.518C433.104 393.462 433.143 393.411 433.192 393.37C433.241 393.329 433.3 393.297 433.364 393.278C433.427 393.259 433.495 393.253 433.562 393.26L436.205 393.163C436.271 393.152 436.338 393.153 436.403 393.168C436.468 393.182 436.528 393.209 436.581 393.247C436.633 393.284 436.676 393.332 436.706 393.386C436.737 393.44 436.754 393.499 436.756 393.559C436.759 393.62 436.748 393.68 436.722 393.736C436.697 393.793 436.659 393.843 436.61 393.884C436.561 393.926 436.503 393.957 436.44 393.976C436.376 393.995 436.309 394.002 436.243 393.995V393.995Z" fill="#7676C1"/>
<path d="M428.299 395.802L436.311 395.514C436.378 395.521 436.445 395.514 436.508 395.495C436.571 395.476 436.629 395.445 436.678 395.403C436.727 395.362 436.765 395.312 436.791 395.256C436.816 395.199 436.828 395.139 436.825 395.078C436.822 395.018 436.805 394.959 436.775 394.905C436.745 394.851 436.702 394.803 436.65 394.765C436.597 394.728 436.537 394.701 436.472 394.687C436.407 394.672 436.339 394.671 436.274 394.682L428.261 394.97C428.195 394.964 428.128 394.97 428.064 394.989C428.001 395.009 427.943 395.04 427.894 395.081C427.846 395.123 427.807 395.173 427.782 395.229C427.757 395.285 427.745 395.346 427.748 395.406C427.751 395.467 427.768 395.526 427.798 395.58C427.828 395.634 427.871 395.682 427.923 395.719C427.976 395.757 428.036 395.784 428.101 395.798C428.166 395.812 428.234 395.814 428.299 395.802V395.802Z" fill="#7676C1"/>
<path d="M423.391 395.979L426.035 395.882C426.102 395.889 426.169 395.882 426.233 395.863C426.296 395.844 426.355 395.813 426.404 395.772C426.453 395.73 426.491 395.68 426.517 395.623C426.542 395.567 426.554 395.507 426.551 395.446C426.549 395.385 426.531 395.326 426.501 395.271C426.471 395.217 426.428 395.17 426.375 395.132C426.322 395.094 426.261 395.067 426.196 395.053C426.131 395.039 426.064 395.038 425.998 395.049L423.354 395.146C423.287 395.14 423.22 395.146 423.156 395.165C423.093 395.184 423.034 395.215 422.985 395.257C422.936 395.298 422.898 395.349 422.872 395.405C422.847 395.461 422.835 395.522 422.838 395.583C422.841 395.643 422.858 395.703 422.888 395.757C422.919 395.811 422.962 395.859 423.014 395.896C423.067 395.934 423.128 395.961 423.193 395.975C423.258 395.989 423.326 395.991 423.391 395.979V395.979Z" fill="#7676C1"/>
<path d="M469.961 340.086L399.657 376.382L422.696 413.219L493 376.923L469.961 340.086Z" fill="white"/>
<path d="M422.126 407.44L404.848 379.816C404.393 379.091 404.273 378.231 404.515 377.426C404.757 376.621 405.341 375.936 406.138 375.522L465.812 344.679C466.208 344.475 466.644 344.345 467.095 344.294C467.547 344.244 468.004 344.274 468.443 344.385C468.881 344.495 469.291 344.683 469.649 344.937C470.008 345.191 470.307 345.507 470.531 345.867L487.809 373.492C488.264 374.217 488.384 375.076 488.142 375.881C487.9 376.686 487.316 377.371 486.518 377.785L426.845 408.629C426.449 408.832 426.013 408.963 425.562 409.014C425.11 409.064 424.653 409.033 424.214 408.923C423.776 408.813 423.366 408.625 423.008 408.371C422.649 408.116 422.35 407.8 422.126 407.44V407.44Z" fill="#4DB4E8"/>
<path d="M468.846 350.899C468.358 351.153 467.798 351.27 467.237 351.235C466.676 351.2 466.139 351.014 465.695 350.702C465.25 350.389 464.917 349.964 464.739 349.479C464.56 348.995 464.544 348.473 464.692 347.98C464.84 347.487 465.146 347.045 465.57 346.711C465.995 346.376 466.52 346.163 467.077 346.099C467.635 346.035 468.202 346.123 468.704 346.352C469.207 346.58 469.624 346.939 469.902 347.383C470.087 347.677 470.207 348.001 470.254 348.337C470.301 348.673 470.274 349.014 470.176 349.34C470.078 349.667 469.91 349.972 469.682 350.24C469.454 350.507 469.17 350.731 468.846 350.899V350.899Z" fill="white"/>
<path d="M485.191 376.965C484.704 377.219 484.144 377.336 483.583 377.301C483.022 377.266 482.485 377.08 482.04 376.768C481.595 376.455 481.263 376.03 481.084 375.545C480.906 375.061 480.89 374.539 481.038 374.046C481.186 373.553 481.492 373.111 481.916 372.777C482.341 372.442 482.866 372.229 483.423 372.165C483.981 372.101 484.548 372.189 485.05 372.418C485.553 372.647 485.97 373.006 486.248 373.45C486.433 373.744 486.552 374.068 486.599 374.403C486.646 374.739 486.62 375.08 486.522 375.407C486.424 375.733 486.256 376.039 486.028 376.306C485.799 376.574 485.515 376.798 485.191 376.965V376.965Z" fill="white"/>
<path d="M410.368 380.825C409.88 381.079 409.32 381.196 408.759 381.16C408.198 381.125 407.661 380.94 407.217 380.627C406.772 380.314 406.439 379.889 406.261 379.404C406.082 378.92 406.066 378.398 406.214 377.905C406.362 377.413 406.668 376.971 407.093 376.636C407.518 376.301 408.042 376.088 408.6 376.024C409.158 375.961 409.724 376.049 410.227 376.277C410.73 376.506 411.147 376.865 411.425 377.309C411.61 377.603 411.729 377.927 411.776 378.263C411.823 378.599 411.797 378.94 411.699 379.266C411.6 379.593 411.432 379.898 411.204 380.166C410.976 380.433 410.692 380.657 410.368 380.825V380.825Z" fill="#72B7CA"/>
<path d="M426.712 406.891C426.224 407.145 425.664 407.262 425.103 407.227C424.542 407.192 424.005 407.006 423.56 406.694C423.116 406.381 422.783 405.956 422.604 405.471C422.426 404.987 422.41 404.465 422.558 403.972C422.706 403.48 423.011 403.038 423.436 402.703C423.861 402.368 424.385 402.155 424.943 402.091C425.501 402.027 426.067 402.115 426.57 402.344C427.073 402.572 427.49 402.932 427.768 403.376C427.953 403.669 428.072 403.993 428.119 404.329C428.167 404.665 428.14 405.006 428.042 405.332C427.944 405.659 427.776 405.965 427.548 406.232C427.319 406.5 427.035 406.724 426.712 406.891V406.891Z" fill="#72B7CA"/>
<path d="M455.151 390.758C450.163 393.336 442.192 389.145 437.347 381.398C432.501 373.651 432.616 365.281 437.603 362.703C442.591 360.125 450.562 364.315 455.408 372.065C460.253 379.815 460.136 388.18 455.151 390.758Z" fill="white"/>
<path d="M468.103 381.301L461.61 384.658C461.561 384.693 461.504 384.718 461.444 384.731C461.384 384.744 461.321 384.745 461.26 384.734C461.199 384.723 461.141 384.701 461.091 384.668C461.04 384.635 460.998 384.592 460.968 384.543C460.937 384.494 460.918 384.44 460.913 384.383C460.907 384.327 460.915 384.27 460.936 384.217C460.957 384.164 460.99 384.116 461.034 384.075C461.077 384.035 461.129 384.003 461.187 383.983L467.681 380.625C467.729 380.59 467.786 380.564 467.847 380.551C467.908 380.537 467.971 380.536 468.032 380.546C468.093 380.557 468.152 380.58 468.202 380.613C468.253 380.646 468.295 380.689 468.326 380.738C468.357 380.787 468.376 380.842 468.381 380.899C468.387 380.955 468.378 381.012 468.357 381.066C468.336 381.119 468.302 381.168 468.258 381.208C468.214 381.249 468.161 381.28 468.103 381.3V381.301Z" fill="white"/>
<path d="M472.08 379.245L469.938 380.353C469.889 380.388 469.832 380.414 469.771 380.427C469.711 380.441 469.647 380.442 469.586 380.432C469.525 380.421 469.467 380.398 469.416 380.365C469.365 380.332 469.323 380.289 469.292 380.24C469.261 380.191 469.242 380.136 469.237 380.079C469.232 380.023 469.24 379.966 469.261 379.912C469.282 379.859 469.316 379.81 469.36 379.77C469.404 379.73 469.457 379.698 469.515 379.678L471.658 378.571C471.707 378.535 471.763 378.51 471.824 378.496C471.885 378.483 471.948 378.481 472.009 378.492C472.071 378.503 472.129 378.525 472.18 378.558C472.23 378.592 472.273 378.634 472.304 378.684C472.335 378.733 472.353 378.788 472.359 378.844C472.364 378.901 472.356 378.958 472.335 379.011C472.313 379.065 472.28 379.113 472.236 379.154C472.192 379.194 472.139 379.225 472.08 379.245V379.245Z" fill="white"/>
<path d="M466.357 383.833L472.85 380.477C472.908 380.456 472.961 380.425 473.004 380.385C473.048 380.344 473.081 380.296 473.102 380.243C473.123 380.189 473.131 380.133 473.126 380.076C473.121 380.02 473.102 379.966 473.071 379.916C473.04 379.867 472.998 379.825 472.948 379.792C472.897 379.759 472.84 379.736 472.779 379.725C472.718 379.714 472.655 379.715 472.594 379.729C472.534 379.742 472.477 379.767 472.428 379.802L465.935 383.158C465.876 383.178 465.823 383.21 465.779 383.25C465.735 383.291 465.702 383.339 465.68 383.393C465.659 383.446 465.651 383.503 465.656 383.559C465.662 383.616 465.68 383.671 465.711 383.72C465.742 383.77 465.784 383.812 465.835 383.845C465.886 383.878 465.944 383.901 466.005 383.912C466.067 383.923 466.13 383.921 466.191 383.908C466.251 383.894 466.308 383.869 466.357 383.833V383.833Z" fill="white"/>
<path d="M463.162 387.14L469.656 383.784C469.714 383.764 469.766 383.732 469.81 383.692C469.853 383.652 469.887 383.603 469.908 383.55C469.929 383.497 469.937 383.44 469.931 383.384C469.926 383.328 469.907 383.273 469.877 383.224C469.846 383.175 469.804 383.132 469.753 383.099C469.703 383.066 469.645 383.043 469.584 383.032C469.523 383.022 469.46 383.023 469.4 383.036C469.339 383.049 469.283 383.074 469.234 383.109L462.74 386.466C462.682 386.486 462.629 386.517 462.585 386.557C462.541 386.598 462.507 386.646 462.486 386.7C462.465 386.753 462.456 386.81 462.462 386.867C462.467 386.923 462.486 386.978 462.517 387.028C462.548 387.077 462.59 387.12 462.641 387.153C462.692 387.186 462.75 387.209 462.811 387.219C462.872 387.23 462.936 387.228 462.996 387.215C463.057 387.201 463.114 387.176 463.162 387.14V387.14Z" fill="white"/>
<path d="M462.379 385.889L464.521 384.781C464.579 384.761 464.632 384.73 464.676 384.689C464.719 384.649 464.752 384.601 464.773 384.547C464.794 384.494 464.802 384.437 464.797 384.381C464.792 384.325 464.773 384.27 464.742 384.221C464.712 384.172 464.67 384.129 464.619 384.096C464.569 384.063 464.511 384.041 464.45 384.03C464.389 384.019 464.326 384.02 464.265 384.033C464.205 384.047 464.148 384.072 464.1 384.107L461.957 385.214C461.899 385.234 461.846 385.266 461.803 385.306C461.759 385.346 461.726 385.395 461.705 385.448C461.684 385.501 461.676 385.558 461.681 385.614C461.686 385.671 461.705 385.725 461.736 385.774C461.766 385.824 461.809 385.866 461.859 385.899C461.91 385.932 461.967 385.955 462.028 385.966C462.089 385.977 462.152 385.975 462.213 385.962C462.273 385.949 462.33 385.924 462.379 385.889V385.889Z" fill="white"/>
<path d="M426.438 369.262L419.945 372.618C419.896 372.653 419.839 372.679 419.778 372.692C419.718 372.706 419.655 372.708 419.593 372.697C419.532 372.686 419.474 372.663 419.423 372.63C419.372 372.597 419.33 372.555 419.299 372.505C419.268 372.456 419.249 372.401 419.244 372.344C419.239 372.288 419.247 372.231 419.268 372.177C419.289 372.124 419.323 372.075 419.367 372.035C419.411 371.995 419.464 371.963 419.522 371.943L426.016 368.587C426.065 368.552 426.122 368.527 426.182 368.514C426.242 368.5 426.305 368.499 426.366 368.51C426.427 368.521 426.485 368.544 426.536 368.577C426.586 368.61 426.628 368.652 426.659 368.701C426.69 368.75 426.708 368.805 426.714 368.861C426.719 368.918 426.711 368.974 426.69 369.028C426.669 369.081 426.636 369.129 426.592 369.17C426.549 369.21 426.496 369.241 426.438 369.262Z" fill="#72B7CA"/>
<path d="M430.415 367.206L428.272 368.314C428.224 368.349 428.167 368.373 428.107 368.387C428.046 368.4 427.983 368.401 427.922 368.39C427.861 368.379 427.804 368.356 427.753 368.324C427.703 368.291 427.661 368.248 427.63 368.199C427.599 368.15 427.581 368.095 427.575 368.039C427.57 367.983 427.578 367.926 427.599 367.873C427.62 367.82 427.653 367.772 427.696 367.731C427.74 367.691 427.792 367.659 427.85 367.639L429.993 366.531C430.042 366.496 430.099 366.471 430.159 366.458C430.22 366.444 430.283 366.443 430.344 366.454C430.405 366.465 430.462 366.488 430.513 366.521C430.563 366.554 430.605 366.596 430.636 366.645C430.667 366.695 430.686 366.749 430.691 366.805C430.696 366.862 430.688 366.918 430.667 366.972C430.646 367.025 430.613 367.073 430.569 367.114C430.526 367.154 430.473 367.185 430.415 367.206V367.206Z" fill="#72B7CA"/>
<path d="M424.692 371.794L431.186 368.437C431.244 368.417 431.297 368.386 431.341 368.346C431.385 368.305 431.418 368.257 431.44 368.203C431.461 368.15 431.469 368.093 431.464 368.036C431.459 367.98 431.44 367.925 431.409 367.875C431.378 367.826 431.336 367.783 431.285 367.75C431.234 367.717 431.176 367.695 431.115 367.684C431.053 367.673 430.99 367.675 430.929 367.688C430.869 367.702 430.812 367.727 430.763 367.763L424.27 371.117C424.212 371.137 424.159 371.169 424.116 371.209C424.072 371.249 424.039 371.298 424.018 371.351C423.997 371.404 423.989 371.461 423.994 371.517C424 371.574 424.018 371.628 424.049 371.677C424.08 371.726 424.122 371.769 424.172 371.802C424.223 371.835 424.28 371.858 424.341 371.869C424.402 371.88 424.465 371.878 424.526 371.865C424.586 371.852 424.643 371.827 424.692 371.792V371.794Z" fill="#72B7CA"/>
<path d="M420.715 373.85L422.857 372.742C422.915 372.721 422.968 372.69 423.011 372.65C423.055 372.609 423.088 372.561 423.109 372.508C423.13 372.454 423.138 372.398 423.133 372.341C423.128 372.285 423.109 372.23 423.078 372.181C423.048 372.132 423.006 372.09 422.955 372.057C422.905 372.024 422.847 372.001 422.786 371.99C422.725 371.979 422.662 371.98 422.601 371.994C422.541 372.007 422.484 372.032 422.435 372.067L420.293 373.175C420.235 373.195 420.182 373.226 420.139 373.267C420.095 373.307 420.062 373.356 420.041 373.409C420.02 373.462 420.012 373.519 420.017 373.575C420.022 373.631 420.041 373.686 420.072 373.735C420.102 373.784 420.144 373.827 420.195 373.86C420.245 373.893 420.303 373.915 420.364 373.926C420.425 373.937 420.488 373.936 420.549 373.923C420.609 373.909 420.666 373.885 420.715 373.85V373.85Z" fill="#72B7CA"/>
<path d="M165.8 263.428C164.848 263.428 163.906 263.614 163.027 263.976C162.148 264.338 161.35 264.869 160.677 265.537C160.004 266.206 159.47 267 159.106 267.874C158.742 268.748 158.555 269.685 158.555 270.631V271.74H173.043V270.631C173.043 268.721 172.28 266.889 170.922 265.538C169.563 264.187 167.721 263.428 165.8 263.428V263.428Z" fill="#C6304D"/>
<path d="M158.555 270.386H176.156C176.402 270.386 176.638 270.484 176.812 270.659C176.986 270.834 177.084 271.071 177.084 271.319V271.382C177.084 271.63 176.986 271.867 176.812 272.042C176.638 272.217 176.402 272.315 176.156 272.315H158.555V270.386Z" fill="#C6304D"/>
<path d="M359.385 382.69V387.607H345.259C345.259 387.607 344.765 382.69 353.901 382.69H359.385Z" fill="#414042"/>
<path d="M352.559 382.861C354.143 382.682 355.108 378.296 355.108 378.296H359.632V383.921L354.965 385.14L352.559 382.861Z" fill="#414042"/>
<path d="M375.367 382.69V387.607H361.157C361.157 387.607 360.66 382.69 369.851 382.69H375.367Z" fill="#414042"/>
<path d="M368.457 382.861C370.042 382.682 371.007 378.296 371.007 378.296H375.53V383.921L370.863 385.14L368.457 382.861Z" fill="#414042"/>
<path d="M351.055 312.39V337.592L353.418 380.592L360.477 380.686L361.203 355.531L363.585 329.475L364.532 356.338L368.775 380.591L375.469 381.54L374.306 351.782L374.369 309.991L369.419 299.927L351.055 312.39Z" fill="#494949"/>
<path d="M364.673 270.293L364.167 278.08V283.042L360.194 286.688L356.426 282.232V269.775L364.673 270.293Z" fill="#FAE3D9"/>
<path opacity="0.47" d="M356.426 278.004C356.426 278.004 357.693 280.835 359.023 281.307C360.353 281.778 364.224 277.199 364.224 277.199L364.501 272.949L356.426 275.956V278.004Z" fill="#7F7FC6"/>
<path d="M354.525 267.509C354.374 267.734 354.788 272.951 354.932 274.706C354.963 275.077 355.116 275.427 355.369 275.702L358.187 278.787C358.346 278.961 358.539 279.1 358.755 279.196C358.97 279.292 359.204 279.342 359.44 279.343C359.676 279.344 359.91 279.297 360.127 279.204C360.344 279.111 360.538 278.974 360.699 278.802L365.004 274.197C365.227 273.958 365.376 273.661 365.434 273.341L368.019 267.576C368.144 266.866 366.377 265.466 365.744 265.113L361.358 262.667C361.136 262.544 360.889 262.471 360.634 262.455C360.38 262.438 360.125 262.479 359.889 262.573L356.209 264.04C355.968 264.136 355.752 264.286 355.578 264.478C355.404 264.669 355.276 264.898 355.205 265.147L354.525 267.509Z" fill="#FAE3D9"/>
<path d="M344.395 302.252L351.012 319.38L351.703 316.981L374.419 317.837L374.591 315.785L374.334 325.371L389.433 299.536C389.849 298.834 390.029 298.02 389.949 297.21C389.868 296.4 389.53 295.636 388.983 295.03L374.864 279.196C374.152 278.396 373.244 277.792 372.228 277.442C371.213 277.092 370.124 277.009 369.066 277.199L364.167 278.078L362.416 282.44C362.236 282.884 361.928 283.264 361.531 283.534C361.134 283.804 360.665 283.95 360.184 283.955C359.703 283.961 359.231 283.824 358.828 283.563C358.425 283.301 358.109 282.927 357.919 282.488L356.458 280.682L351.494 283.015C350.646 283.41 349.898 283.99 349.306 284.712C348.713 285.434 348.291 286.279 348.072 287.185L344.395 302.252ZM375.812 312.557L375.362 294.167L380.791 299.44L375.812 312.557ZM350.161 301.406L351.365 298.323L351.879 306.375L350.161 301.406Z" fill="#F7931E"/>
<path d="M356.967 264.787C359.163 268.659 365.038 266.852 365.038 266.852L364.975 271.563L366.072 268.465C366.072 268.465 366.847 268.658 366.782 269.755C366.718 270.853 365.943 271.046 365.943 271.046L365.493 273.418C365.493 273.418 368.074 271.046 368.461 267.69C368.848 264.334 367.859 263.667 365.857 261.602C364.56 260.263 361.049 259.617 358.883 259.794C356.925 259.955 355.365 260.799 354.665 262.634C354.465 263.161 354.063 263.154 354.063 263.818C354.063 266.916 354.708 268.528 354.708 268.528L356.967 264.787Z" fill="#EF3554"/>
<path d="M129.578 370.483L126.973 377.838C126.973 377.838 136.314 382.76 139.608 382.526C142.902 382.293 140.879 376.936 135.948 376.929C132.795 376.926 133.861 372.492 133.861 372.492L129.578 370.483Z" fill="#413539"/>
<path d="M170.617 373.843L170.586 381.924C170.586 381.924 181.284 381.807 184.576 381.573C187.867 381.34 183.75 376.651 178.822 376.645C175.671 376.641 174.567 373.047 174.567 373.047L170.617 373.843Z" fill="#413539"/>
<path d="M150.826 318.848L144.565 338.425L131.006 366.824L128.047 373.022L133.758 374.072L152.379 346.463L163.696 333.067L150.826 318.848Z" fill="#414042"/>
<path d="M155.672 342.809C155.167 342.809 147.798 331.255 148.505 327.638L151.331 317.993L159.71 338.991L155.672 342.809Z" fill="#303030"/>
<path d="M168.84 320.781L171.52 346.08L174.611 373.953L169.203 374.24L160.229 347.121C160.229 347.121 149.244 323.447 149.998 316.386C150.752 309.325 168.84 320.781 168.84 320.781Z" fill="#414042"/>
<path d="M193.293 289.893L182.86 286.306C182.645 283.153 183.665 280.04 185.705 277.619C187.745 275.197 190.648 273.655 193.805 273.315L189.251 284.798L193.293 289.893Z" fill="white"/>
<path d="M188.062 293.457L179.427 315.273C179.256 315.704 179.172 316.165 179.18 316.628C179.188 317.091 179.287 317.548 179.472 317.973C179.657 318.398 179.925 318.783 180.259 319.105C180.593 319.427 180.987 319.68 181.42 319.85V319.85C181.852 320.021 182.314 320.104 182.778 320.096C183.243 320.089 183.702 319.99 184.128 319.805C184.554 319.621 184.94 319.354 185.263 319.021C185.586 318.688 185.84 318.295 186.011 317.864L194.646 296.048L188.062 293.457Z" fill="white"/>
<path d="M189.083 299.983C188.769 299.86 188.435 299.799 188.098 299.805C187.761 299.811 187.428 299.882 187.119 300.015C186.81 300.149 186.53 300.341 186.296 300.582C186.061 300.823 185.877 301.107 185.754 301.418L180.433 314.81C180.183 315.439 180.195 316.141 180.466 316.761C180.737 317.381 181.245 317.869 181.878 318.117V318.117C182.512 318.366 183.218 318.354 183.842 318.085C184.467 317.815 184.958 317.311 185.208 316.682L190.528 303.29C190.652 302.979 190.713 302.646 190.707 302.311C190.701 301.977 190.629 301.646 190.495 301.339C190.361 301.032 190.167 300.754 189.925 300.521C189.683 300.289 189.396 300.106 189.083 299.983V299.983Z" fill="#E1E1FF"/>
<path d="M183.817 316.316C183.756 316.468 183.65 316.599 183.513 316.692C183.376 316.785 183.213 316.837 183.046 316.84C182.88 316.842 182.715 316.797 182.575 316.708C182.435 316.62 182.324 316.493 182.258 316.343C182.191 316.193 182.171 316.027 182.201 315.866C182.231 315.705 182.308 315.556 182.424 315.438C182.54 315.321 182.689 315.239 182.852 315.204C183.015 315.17 183.185 315.183 183.34 315.243C183.444 315.283 183.538 315.342 183.618 315.417C183.697 315.493 183.761 315.583 183.806 315.683C183.85 315.782 183.874 315.889 183.876 315.998C183.877 316.107 183.858 316.215 183.817 316.316V316.316Z" fill="#FFD9E8"/>
<path d="M206.553 290.076C205.528 292.66 203.649 294.821 201.226 296.202C198.803 297.584 195.98 298.104 193.22 297.678C190.461 297.252 187.929 295.904 186.041 293.856C184.153 291.809 183.022 289.183 182.832 286.411L193.273 290.001L199.869 289.081L204.428 277.588C205.893 279.278 206.866 281.336 207.241 283.537C207.615 285.738 207.378 287.999 206.553 290.076V290.076Z" fill="white"/>
<path d="M167.636 267.468C170.605 271.353 172.549 270.376 171.35 271.57C171.35 271.57 165.647 271.73 164.14 271.508C164.14 271.508 164.317 275.603 163.829 276.523L160.011 274.675C160.011 274.675 158.612 271.995 159.487 269.646C160.363 267.297 162.352 265.531 164.527 265.271C166.702 265.011 167.74 269.091 168.758 266.441L167.636 267.468Z" fill="#404B69"/>
<path d="M171.244 271.511C171.244 271.511 170.95 273.986 172.139 275.033C173.329 276.08 173.802 276.006 173.802 276.006C173.802 276.006 172.537 277.528 172.275 278.953C172.014 280.379 170.773 281.655 168.597 281.759C166.42 281.863 166.086 281.42 166.086 281.42L165.064 285.664C165.064 285.664 161.469 283.477 160.653 281.929L161.126 277.42C161.126 277.42 159.063 275.057 160.673 274.194C162.283 273.33 163.732 276.453 163.732 276.453L163.866 271.362L171.244 271.511Z" fill="#FAE3D9"/>
<path opacity="0.47" d="M166.086 281.472C166.086 281.472 162.148 279.33 161.124 277.466L160.918 279.428C160.918 279.428 164.215 282.094 165.909 281.987L166.086 281.472Z" fill="#7F7FC6"/>
<path d="M187.212 312.609L190.532 315.287C190.637 315.371 190.768 315.418 190.903 315.418C191.038 315.418 191.169 315.371 191.274 315.287L193.497 313.482C193.563 313.429 193.616 313.361 193.653 313.285C193.691 313.209 193.711 313.126 193.713 313.041C193.715 312.957 193.698 312.873 193.664 312.795C193.63 312.718 193.58 312.648 193.516 312.592L191.702 310.367C191.804 310.064 192.356 309.188 192.053 309.082L189.918 309.686C189.715 309.615 182.388 309.501 185.187 309.652L187.19 311.722C187.127 311.778 187.077 311.848 187.044 311.925C187.01 312.002 186.994 312.086 186.996 312.17C186.998 312.255 187.019 312.338 187.056 312.413C187.093 312.489 187.146 312.556 187.212 312.609Z" fill="#FAE3D9"/>
<path d="M168.586 284.127L162.578 281.787C161.886 281.567 161.143 281.559 160.446 281.764C159.748 281.969 159.129 282.377 158.668 282.936L157.879 283.891C155.408 286.884 153.708 290.431 152.926 294.225L149.382 314.369C149.276 314.885 149.299 315.419 149.448 315.924C149.598 316.429 149.87 316.889 150.241 317.265C150.612 317.641 151.07 317.92 151.575 318.079C152.08 318.238 152.616 318.271 153.137 318.175L167.99 320.399C168.544 320.297 169.043 320 169.394 319.561C169.746 319.123 169.926 318.573 169.902 318.013L168.586 284.127Z" fill="#9CAEEF"/>
<path d="M162.174 283.52C157.562 285.688 159.845 299.806 152.671 295.473L147.691 313.89C147.691 313.89 146.691 318.131 151.243 318.946C155.795 319.761 170.266 321.202 170.266 321.202L170.839 290.882C170.823 288.239 169.599 284.111 167.102 283.202C166.303 282.915 165.453 282.795 164.605 282.85C163.757 282.905 162.929 283.133 162.174 283.52V283.52Z" fill="#C6304D"/>
<path d="M168.336 285.322C169.276 286.964 169.907 288.763 170.198 290.63L172.72 306.795C172.769 307.189 172.96 307.552 173.258 307.816C173.557 308.079 173.941 308.226 174.34 308.227L185.921 309.067C186.304 309.095 186.678 309.201 187.019 309.378C187.36 309.555 187.661 309.799 187.903 310.096C188.146 310.394 188.324 310.737 188.429 311.105C188.533 311.474 188.56 311.86 188.509 312.239V312.239C188.419 312.901 188.095 313.51 187.594 313.956C187.094 314.402 186.449 314.655 185.778 314.669L167.21 315.078C166.402 315.08 165.325 313.135 165.199 312.34L161.176 290.128C160.916 288.495 161.861 285.504 163.204 284.532C163.958 283.987 164.865 283.692 165.797 283.691C166.29 283.695 166.773 283.827 167.198 284.077C167.623 284.326 167.975 284.683 168.217 285.11L168.336 285.322Z" fill="#9CAEEF"/>
<path d="M253.098 348.368L261.042 368.646C261.042 368.646 270.124 381.409 275.893 388.068C276.735 389.04 272.103 392.074 271.198 391.022C265.219 384.076 255.629 374.226 255.629 374.226L243.418 350.571L248.3 344.482L253.098 348.368Z" fill="#EBA920"/>
<path d="M272.575 328.418C274.592 333.405 273.106 335.8 271.494 336.724C271.494 336.724 265.419 335.252 263.891 334.581C263.891 334.581 262.895 338.988 262.114 339.824L258.612 336.761C258.612 336.761 257.906 333.508 259.51 331.262C261.114 329.015 263.726 327.71 266.1 328.059C268.474 328.408 270.979 331.062 272.82 328.538" fill="#414042"/>
<path d="M271.208 336.761C271.208 336.761 270.185 339.316 271.138 340.776C272.09 342.237 272.61 342.295 272.61 342.295C272.61 342.295 270.837 343.553 270.15 344.998C269.463 346.443 267.787 347.447 265.461 346.929C264.067 346.617 262.811 345.865 261.878 344.785L258.761 345.469C258.761 345.469 256.294 343.803 255.879 341.916L258.832 340.144C258.832 340.144 257.337 337.028 259.284 336.572C261.231 336.115 261.86 339.865 261.86 339.865L263.468 334.473L271.208 336.761Z" fill="#FCCAA7"/>
<g style="mix-blend-mode:multiply">
<path d="M261.666 344.7C260.031 343.167 260.083 342.041 260.083 342.041C260.083 342.041 259.68 343.81 260.34 345.065L261.666 344.7Z" fill="#E6E6E6"/>
</g>
<g style="mix-blend-mode:multiply">
<path d="M258.643 340.088C258.643 340.088 258.978 340.588 260.658 341.448C260.658 341.448 258.561 341.182 257.813 340.583L258.643 340.088Z" fill="#E6E6E6"/>
</g>
<path d="M255.199 348.761L260.281 345.702L255.933 340.088L253.73 342.062L255.199 348.761Z" fill="#FFCA3C"/>
<path d="M273.496 388.476L274.216 391.754L275.126 395.018C275.637 395.767 277.637 395.547 278.536 395.394C279.229 395.277 279.109 394.045 278.992 393.358L278.546 390.732C278.546 390.732 279.151 392.398 279.525 392.596C280.725 393.232 280.513 392.114 280.241 391.747C279.173 390.274 277.999 388.879 276.727 387.573L273.496 388.476Z" fill="#FCCAA7"/>
<path d="M253.022 424.637L252.012 430.803C252.012 430.803 263.788 430.82 265.941 430.803C268.094 430.787 265.711 425.741 260.393 426.801C255.076 427.861 258.313 422.485 258.313 422.485L253.022 424.637Z" fill="#413539"/>
<path d="M248.497 378.659C248.497 378.659 260.047 384.95 266.828 388.122C273.61 391.295 268.863 397.413 266.828 400.586C264.794 403.758 258.373 424.606 258.373 424.606H253.039C253.039 424.606 253.943 416.222 254.621 410.33C255.3 404.438 259.582 395.6 259.582 395.6C259.582 395.6 243.998 392.428 235.861 386.763C227.723 381.097 230.586 372.314 230.586 372.314H242.189L248.497 378.659Z" fill="#414042"/>
<path d="M221.977 418.297L218.496 423.849L223.49 430.816C223.49 430.816 227.122 431.224 229.166 430.816C231.21 430.407 226.82 426.138 225.004 425.582L228.712 417.969L221.977 418.297Z" fill="#413539"/>
<path d="M232.514 378.662C234.03 391.902 234.332 396.131 234.332 396.131C234.332 396.131 230.703 398.246 228.284 403.987C225.864 409.728 221.934 418.293 221.934 418.293L228.132 420.907L244.472 398.462L243.101 381.607L232.514 378.662Z" fill="#414042"/>
<path d="M255.984 341.894C255.769 341.467 255.462 341.092 255.086 340.796C254.71 340.5 254.273 340.289 253.806 340.178C253.34 340.067 252.855 340.059 252.385 340.154C251.914 340.249 251.471 340.445 251.085 340.729C244.524 345.535 230.157 357.75 230.535 372.33C230.667 377.428 249.281 382.436 249.033 377.342C248.385 364.126 254.382 360.663 257.271 355.775C260.16 350.887 255.984 341.894 255.984 341.894Z" fill="#FFCA3C"/>
<path d="M277.122 333.038L273.68 332.704C273.911 328.971 270.761 325.651 266.507 325.238C262.253 324.824 258.516 327.475 258.017 331.182L257.992 331.18L257.971 331.399L257.866 332.465L257.813 333.015L276.942 334.874C277.189 334.903 277.437 334.834 277.632 334.681C277.828 334.529 277.954 334.305 277.984 334.06L277.986 334.038C278.004 333.791 277.924 333.547 277.762 333.36C277.6 333.172 277.37 333.057 277.122 333.038V333.038Z" fill="#C6573C"/>
<path d="M252.174 340.38C248.805 340.833 246.238 345.008 245.401 346.369C243.943 348.741 243.653 350.296 242.474 350.457C241.456 350.595 241.812 349.894 241.174 349.086L229.649 364.829C229.649 364.829 228.548 366.691 229.267 368.57C229.733 369.787 230.738 370.424 231.335 370.802C237.871 374.938 236.634 375.065 239.493 376.239C242.596 377.508 245.927 378.133 249.282 378.077C249.249 375.521 249.423 372.966 249.802 370.438C250.928 363.18 253.664 356.262 257.812 350.188C258.771 346.271 258.24 342.878 255.256 340.734C254.271 340.376 253.215 340.255 252.174 340.38V340.38Z" fill="#C6573C"/>
<path d="M257.427 346.359L263.889 367.188C263.889 367.188 272.029 380.594 277.305 387.663C278.075 388.695 273.233 391.388 272.405 390.272C266.94 382.9 258.083 372.367 258.083 372.367L247.609 347.856C247.317 347.141 247.22 346.363 247.328 345.599C247.435 344.835 247.744 344.113 248.222 343.506C248.775 342.832 249.519 342.34 250.358 342.095C251.196 341.849 252.089 341.861 252.921 342.13C254.062 342.159 255.153 342.607 255.984 343.387C256.816 344.167 257.329 345.225 257.426 346.359L257.427 346.359Z" fill="#FFCA3C"/>
<path d="M412.41 390.287C418.169 385.011 418.562 376.066 413.287 370.306C408.011 364.546 399.066 364.154 393.306 369.429C387.546 374.704 387.154 383.65 392.429 389.41C397.704 395.169 406.65 395.562 412.41 390.287Z" fill="url(#paint2_radial)"/>
<path d="M402.298 392.614C409.343 392.924 415.305 387.463 415.615 380.418C415.924 373.372 410.463 367.41 403.418 367.101C396.373 366.792 390.411 372.253 390.102 379.298C389.792 386.343 395.253 392.305 402.298 392.614Z" fill="url(#paint3_radial)"/>
<path d="M406.035 382.725C406.103 381.176 405.277 380.244 403.61 379.463L403.78 375.571C404.169 375.621 404.549 375.721 404.911 375.87C404.986 375.906 405.068 375.926 405.151 375.93C405.234 375.933 405.318 375.92 405.396 375.89C405.474 375.861 405.545 375.816 405.605 375.758C405.665 375.7 405.713 375.631 405.745 375.554C405.778 375.477 405.794 375.395 405.794 375.311C405.794 375.228 405.776 375.145 405.743 375.069C405.71 374.992 405.662 374.923 405.601 374.866C405.541 374.809 405.469 374.764 405.391 374.735C404.892 374.541 404.366 374.42 403.832 374.378L403.917 372.448C403.923 372.301 403.871 372.158 403.772 372.049C403.672 371.941 403.534 371.876 403.387 371.87C403.24 371.863 403.097 371.916 402.988 372.015C402.88 372.114 402.815 372.253 402.809 372.399L402.722 374.38C400.994 374.575 399.847 375.698 399.781 377.209C399.714 378.738 400.744 379.715 402.456 380.432L402.275 384.568C402.237 384.567 402.2 384.568 402.162 384.566C401.492 384.532 400.835 384.364 400.231 384.074C400.153 384.036 400.068 384.016 399.981 384.013C399.894 384.011 399.808 384.027 399.728 384.06C399.649 384.093 399.577 384.143 399.517 384.206C399.458 384.269 399.412 384.343 399.384 384.425L399.38 384.435C399.329 384.579 399.334 384.736 399.393 384.876C399.451 385.017 399.56 385.13 399.697 385.195C400.427 385.522 401.212 385.709 402.011 385.747C402.083 385.75 402.153 385.751 402.223 385.752L402.155 387.284C402.149 387.431 402.201 387.575 402.3 387.683C402.4 387.792 402.538 387.856 402.685 387.863C402.832 387.869 402.975 387.817 403.084 387.718C403.192 387.618 403.257 387.48 403.263 387.333L403.337 385.658C405.079 385.321 405.974 384.118 406.035 382.725ZM401.237 377.107C401.264 376.486 401.684 375.784 402.67 375.588L402.522 378.942C401.605 378.438 401.201 377.929 401.237 377.107V377.107ZM403.393 384.39L403.543 380.984C404.297 381.472 404.599 382.009 404.565 382.776C404.559 383.132 404.443 383.478 404.233 383.767C404.024 384.056 403.73 384.273 403.393 384.389L403.393 384.39Z" fill="white"/>
<path d="M322.846 429.419L324.47 435.63L328.384 437.608L326.264 429.5L322.846 429.419Z" fill="url(#paint4_linear)"/>
<path d="M360.848 448.584C378.334 445.777 390.435 435.566 387.876 425.778C385.316 415.99 369.066 410.331 351.58 413.138C334.094 415.946 321.993 426.156 324.552 435.944C327.111 445.732 343.361 451.391 360.848 448.584Z" fill="url(#paint5_linear)"/>
<path d="M359.231 442.4C376.717 439.593 388.818 429.382 386.259 419.594C383.7 409.806 367.449 404.148 349.963 406.955C332.477 409.762 320.376 419.973 322.935 429.761C325.495 439.549 341.745 445.208 359.231 442.4Z" fill="url(#paint6_linear)"/>
<path d="M359.068 441.777C375.939 439.068 387.614 429.217 385.145 419.773C382.676 410.329 366.997 404.87 350.126 407.578C333.255 410.287 321.58 420.138 324.049 429.582C326.518 439.026 342.197 444.485 359.068 441.777Z" fill="url(#paint7_linear)"/>
<path style="mix-blend-mode:multiply" opacity="0.82" d="M358.486 439.55C373.161 437.194 383.315 428.625 381.168 420.411C379.02 412.197 365.383 407.448 350.708 409.804C336.034 412.16 325.879 420.729 328.027 428.943C330.175 437.157 343.812 441.906 358.486 439.55Z" fill="url(#paint8_linear)"/>
<g style="mix-blend-mode:screen" opacity="0.82">
<path d="M333.576 417.356C342.369 409.936 359.012 407.221 370.892 411.235C370.806 411.205 370.722 411.173 370.636 411.143C358.741 407.001 341.917 409.702 333.06 417.176C324.202 424.651 326.664 434.067 338.559 438.21C338.645 438.239 338.731 438.267 338.819 438.298C327.146 434.11 324.782 424.777 333.576 417.356Z" fill="white"/>
</g>
<path style="mix-blend-mode:screen" opacity="0.59" d="M358.059 437.954C371.152 435.856 380.215 428.215 378.301 420.886C376.387 413.557 364.222 409.317 351.128 411.415C338.035 413.513 328.972 421.155 330.886 428.483C332.8 435.812 344.965 440.052 358.059 437.954Z" fill="url(#paint9_linear)"/>
<path opacity="0.82" d="M359.991 421.327L360.246 422.304L361.95 422.766L361.382 421.539L359.991 421.327Z" fill="#FAA925"/>
<path d="M367.547 415.156L367.803 416.134L366.9 416.879L366.021 416.434L367.547 415.156Z" fill="#FAA925"/>
<g opacity="0.82">
<path opacity="0.82" d="M341.663 434.505L343.589 432.887C341.621 431.972 340.647 430.952 340.667 429.826C340.687 428.7 341.598 427.383 343.401 425.873L344.11 425.278L350.106 427.383L349.568 427.84C348.241 428.952 348.117 429.698 349.196 430.076C349.674 430.235 350.181 430.251 350.644 430.123C351.173 429.991 351.653 429.745 352.051 429.403C352.353 429.15 352.445 428.65 352.326 427.901L351.099 423.026C350.644 421.248 351.215 419.69 352.81 418.354C353.97 417.379 355.504 416.703 357.412 416.326C359.307 415.951 361.3 415.976 363.255 416.4L364.823 415.088L367.803 416.134L366.277 417.411C368.002 418.234 368.889 419.251 368.937 420.46C368.985 421.67 368.139 423.004 366.398 424.464L360.247 422.305L361.309 421.373C361.411 421.295 361.482 421.188 361.513 421.065C361.543 420.942 361.532 420.81 361.481 420.687C361.415 420.553 361.317 420.432 361.197 420.335C361.077 420.238 360.937 420.168 360.789 420.128C360.363 419.984 359.915 419.94 359.486 419.999C359.059 420.04 358.663 420.197 358.345 420.453C357.914 420.814 357.844 421.551 358.139 422.658L359.399 427.338C359.618 428.175 359.558 429.034 359.226 429.792C358.852 430.648 358.276 431.4 357.54 431.992C356.684 432.7 355.698 433.257 354.623 433.642C353.408 434.076 352.116 434.328 350.79 434.388C349.381 434.462 347.949 434.316 346.55 433.956L344.648 435.548L341.663 434.505Z" fill="url(#paint10_linear)"/>
</g>
<path d="M341.408 433.527L343.333 431.909C341.365 430.994 340.391 429.974 340.411 428.849C340.431 427.723 341.343 426.405 343.145 424.895L343.855 424.3L349.851 426.405L349.312 426.862C347.986 427.975 347.862 428.72 348.94 429.099C349.419 429.257 349.925 429.274 350.389 429.146C350.917 429.014 351.398 428.767 351.795 428.425C352.098 428.172 352.19 427.672 352.071 426.924L350.843 422.049C350.389 420.27 350.959 418.712 352.555 417.376C353.715 416.401 355.249 415.725 357.156 415.348C359.052 414.974 361.044 414.999 362.999 415.422L364.568 414.11L367.548 415.156L366.021 416.434C367.747 417.257 368.633 418.273 368.682 419.483C368.73 420.692 367.883 422.027 366.142 423.487L359.991 421.328L361.054 420.395C361.155 420.318 361.226 420.21 361.257 420.087C361.288 419.965 361.277 419.832 361.226 419.709C361.159 419.575 361.062 419.455 360.942 419.358C360.822 419.261 360.682 419.19 360.533 419.151C360.108 419.006 359.66 418.962 359.23 419.022C358.803 419.062 358.407 419.219 358.09 419.475C357.658 419.837 357.589 420.574 357.884 421.68L359.143 426.361C359.363 427.197 359.302 428.056 358.971 428.814C358.597 429.671 358.021 430.422 357.285 431.014C356.429 431.722 355.443 432.279 354.368 432.664C353.153 433.098 351.861 433.35 350.536 433.41C349.126 433.484 347.694 433.338 346.295 432.977L344.393 434.57L341.408 433.527Z" fill="#FFE169"/>
<path d="M344.391 434.572L344.686 435.543L341.663 434.505L341.407 433.527L344.391 434.572Z" fill="#FAA925"/>
<path d="M316.623 432.236L321.133 436.804L325.512 436.561L319.623 430.597L316.623 432.236Z" fill="url(#paint11_linear)"/>
<path d="M359.116 429.844C372.859 418.674 378.237 403.782 371.129 396.583C364.021 389.384 347.118 392.603 333.375 403.774C319.632 414.945 314.253 429.836 321.361 437.035C328.47 444.234 345.373 441.015 359.116 429.844Z" fill="url(#paint12_linear)"/>
<path d="M354.625 425.296C368.368 414.126 373.747 399.234 366.638 392.035C359.53 384.836 342.627 388.056 328.884 399.226C315.141 410.397 309.762 425.288 316.871 432.487C323.979 439.686 340.882 436.467 354.625 425.296Z" fill="url(#paint13_linear)"/>
<path d="M354.172 424.838C367.432 414.06 372.621 399.692 365.763 392.747C358.905 385.801 342.596 388.907 329.336 399.685C316.077 410.462 310.888 424.83 317.746 431.776C324.604 438.722 340.913 435.615 354.172 424.838Z" fill="url(#paint14_linear)"/>
<path style="mix-blend-mode:multiply" opacity="0.82" d="M352.556 423.199C364.089 413.825 368.602 401.328 362.637 395.286C356.671 389.245 342.486 391.947 330.953 401.322C319.42 410.696 314.907 423.193 320.872 429.234C326.838 435.276 341.023 432.574 352.556 423.199Z" fill="url(#paint15_linear)"/>
<g style="mix-blend-mode:screen" opacity="0.82">
<path d="M319.887 416.425C323.796 405.603 336.855 394.934 349.15 392.474C349.061 392.491 348.972 392.505 348.883 392.523C336.51 394.879 323.287 405.626 319.351 416.527C315.414 427.428 322.252 434.354 334.625 431.997C334.715 431.98 334.804 431.961 334.895 431.943C322.692 434.15 315.98 427.247 319.887 416.425Z" fill="white"/>
</g>
<path style="mix-blend-mode:screen" opacity="0.59" d="M351.388 422.031C361.68 413.67 365.711 402.522 360.391 397.131C355.071 391.739 342.414 394.146 332.122 402.507C321.83 410.867 317.799 422.016 323.119 427.407C328.439 432.799 341.096 430.392 351.388 422.031Z" fill="url(#paint16_linear)"/>
<path opacity="0.82" d="M344.752 406.663L345.462 407.382L347.168 406.931L346.063 406.152L344.752 406.663Z" fill="#FAA925"/>
<path d="M348.213 397.542L348.923 398.261L348.513 399.358L347.529 399.412L348.213 397.542Z" fill="#FAA925"/>
<g opacity="0.82">
<path opacity="0.82" d="M335.463 427.237L336.322 424.873C334.16 425.064 332.807 424.667 332.262 423.682C331.716 422.697 331.847 421.1 332.654 418.892L332.971 418.022L339.217 416.849L338.979 417.514C338.386 419.14 338.651 419.848 339.774 419.636C340.268 419.535 340.715 419.296 341.052 418.953C341.444 418.575 341.737 418.122 341.91 417.626C342.046 417.257 341.876 416.777 341.399 416.188L337.899 412.579C336.617 411.265 336.332 409.631 337.046 407.676C337.564 406.252 338.555 404.9 340.019 403.62C341.473 402.349 343.212 401.375 345.117 400.764L345.82 398.844L348.924 398.261L348.24 400.13C350.146 399.981 351.422 400.418 352.068 401.441C352.714 402.465 352.648 404.044 351.869 406.179L345.462 407.383L345.917 406.044C345.966 405.926 345.974 405.798 345.939 405.676C345.905 405.554 345.829 405.445 345.723 405.364C345.598 405.281 345.454 405.225 345.301 405.201C345.149 405.177 344.992 405.186 344.844 405.226C344.403 405.314 343.993 405.499 343.651 405.766C343.301 406.014 343.037 406.348 342.89 406.729C342.696 407.257 343.005 407.93 343.813 408.741L347.243 412.166C347.851 412.781 348.228 413.555 348.32 414.377C348.424 415.306 348.301 416.245 347.959 417.126C347.571 418.167 346.996 419.142 346.257 420.013C345.422 420.996 344.428 421.859 343.31 422.574C342.126 423.343 340.813 423.932 339.421 424.319L338.57 426.649L335.463 427.237Z" fill="url(#paint17_linear)"/>
</g>
<path d="M334.753 426.518L335.612 424.154C333.451 424.345 332.097 423.948 331.552 422.963C331.006 421.978 331.137 420.381 331.944 418.172L332.261 417.303L338.507 416.13L338.269 416.795C337.676 418.421 337.941 419.129 339.064 418.917C339.558 418.816 340.005 418.577 340.342 418.235C340.734 417.856 341.027 417.402 341.201 416.907C341.336 416.537 341.166 416.058 340.689 415.469L337.189 411.86C335.907 410.546 335.622 408.912 336.337 406.957C336.854 405.533 337.845 404.181 339.309 402.901C340.763 401.629 342.502 400.655 344.407 400.045L345.11 398.124L348.214 397.542L347.53 399.411C349.436 399.262 350.712 399.699 351.358 400.722C352.004 401.746 351.938 403.325 351.159 405.46L344.752 406.664L345.207 405.325C345.256 405.207 345.264 405.078 345.229 404.957C345.195 404.835 345.119 404.726 345.013 404.645C344.888 404.562 344.744 404.506 344.591 404.482C344.439 404.458 344.282 404.467 344.134 404.507C343.693 404.595 343.283 404.78 342.941 405.047C342.591 405.295 342.327 405.629 342.18 406.009C341.986 406.538 342.295 407.211 343.104 408.022L346.533 411.447C347.141 412.062 347.518 412.836 347.61 413.658C347.714 414.587 347.591 415.525 347.25 416.406C346.862 417.447 346.286 418.422 345.547 419.293C344.712 420.276 343.719 421.14 342.601 421.855C341.417 422.623 340.104 423.212 338.712 423.599L337.86 425.929L334.753 426.518Z" fill="#FFE169"/>
<path d="M337.859 425.931L338.6 426.626L335.463 427.237L334.753 426.518L337.859 425.931Z" fill="#FAA925"/>
<path d="M292.623 432.236L297.133 436.804L301.512 436.561L295.623 430.597L292.623 432.236Z" fill="url(#paint18_linear)"/>
<path d="M334.625 430.296C348.368 419.126 353.747 404.234 346.638 397.035C339.53 389.836 322.627 393.056 308.884 404.226C295.141 415.397 289.762 430.288 296.871 437.487C303.979 444.686 320.882 441.467 334.625 430.296Z" fill="url(#paint19_linear)"/>
<path d="M330.625 425.296C344.368 414.126 349.747 399.234 342.638 392.035C335.53 384.836 318.627 388.056 304.884 399.226C291.141 410.397 285.762 425.288 292.871 432.487C299.979 439.686 316.882 436.467 330.625 425.296Z" fill="url(#paint20_linear)"/>
<path d="M330.172 424.838C343.432 414.06 348.621 399.692 341.763 392.747C334.905 385.801 318.596 388.907 305.336 399.685C292.077 410.462 286.888 424.83 293.746 431.776C300.604 438.722 316.913 435.615 330.172 424.838Z" fill="url(#paint21_linear)"/>
<path style="mix-blend-mode:multiply" opacity="0.82" d="M328.556 423.199C340.089 413.825 344.602 401.328 338.637 395.286C332.671 389.245 318.486 391.947 306.953 401.322C295.42 410.696 290.907 423.193 296.872 429.234C302.838 435.276 317.023 432.574 328.556 423.199Z" fill="url(#paint22_linear)"/>
<g style="mix-blend-mode:screen" opacity="0.82">
<path d="M295.887 416.425C299.796 405.603 312.855 394.934 325.15 392.474C325.061 392.491 324.972 392.505 324.883 392.523C312.51 394.879 299.287 405.626 295.351 416.527C291.414 427.428 298.252 434.354 310.625 431.997C310.715 431.98 310.804 431.961 310.895 431.943C298.692 434.15 291.98 427.247 295.887 416.425Z" fill="white"/>
</g>
<path style="mix-blend-mode:screen" opacity="0.59" d="M327.388 422.031C337.68 413.67 341.711 402.522 336.391 397.131C331.071 391.739 318.414 394.146 308.122 402.507C297.83 410.867 293.799 422.016 299.119 427.407C304.439 432.799 317.096 430.392 327.388 422.031Z" fill="url(#paint23_linear)"/>
<path opacity="0.82" d="M320.752 406.663L321.462 407.382L323.168 406.931L322.063 406.152L320.752 406.663Z" fill="#FAA925"/>
<path d="M324.213 397.542L324.923 398.261L324.513 399.358L323.529 399.412L324.213 397.542Z" fill="#FAA925"/>
<g opacity="0.82">
<path opacity="0.82" d="M311.463 427.237L312.322 424.873C310.16 425.064 308.807 424.667 308.262 423.682C307.716 422.697 307.847 421.1 308.654 418.892L308.971 418.022L315.217 416.849L314.979 417.514C314.386 419.14 314.651 419.848 315.774 419.636C316.268 419.535 316.715 419.296 317.052 418.953C317.444 418.575 317.737 418.122 317.91 417.626C318.046 417.257 317.876 416.777 317.399 416.188L313.899 412.579C312.617 411.265 312.332 409.631 313.046 407.676C313.564 406.252 314.555 404.9 316.019 403.62C317.473 402.349 319.212 401.375 321.117 400.764L321.82 398.844L324.924 398.261L324.24 400.13C326.146 399.981 327.422 400.418 328.068 401.441C328.714 402.465 328.648 404.044 327.869 406.179L321.462 407.383L321.917 406.044C321.966 405.926 321.974 405.798 321.939 405.676C321.905 405.554 321.829 405.445 321.723 405.364C321.598 405.281 321.454 405.225 321.301 405.201C321.149 405.177 320.992 405.186 320.844 405.226C320.403 405.314 319.993 405.499 319.651 405.766C319.301 406.014 319.037 406.348 318.89 406.729C318.696 407.257 319.005 407.93 319.813 408.741L323.243 412.166C323.851 412.781 324.228 413.555 324.32 414.377C324.424 415.306 324.301 416.245 323.959 417.126C323.571 418.167 322.996 419.142 322.257 420.013C321.422 420.996 320.428 421.859 319.31 422.574C318.126 423.343 316.813 423.932 315.421 424.319L314.57 426.649L311.463 427.237Z" fill="url(#paint24_linear)"/>
</g>
<path d="M310.753 426.518L311.612 424.154C309.451 424.345 308.097 423.948 307.552 422.963C307.006 421.978 307.137 420.381 307.944 418.172L308.261 417.303L314.507 416.13L314.269 416.795C313.676 418.421 313.941 419.129 315.064 418.917C315.558 418.816 316.005 418.577 316.342 418.235C316.734 417.856 317.027 417.402 317.201 416.907C317.336 416.537 317.166 416.058 316.689 415.469L313.189 411.86C311.907 410.546 311.622 408.912 312.337 406.957C312.854 405.533 313.845 404.181 315.309 402.901C316.763 401.629 318.502 400.655 320.407 400.045L321.11 398.124L324.214 397.542L323.53 399.411C325.436 399.262 326.712 399.699 327.358 400.722C328.004 401.746 327.938 403.325 327.159 405.46L320.752 406.664L321.207 405.325C321.256 405.207 321.264 405.078 321.229 404.957C321.195 404.835 321.119 404.726 321.013 404.645C320.888 404.562 320.744 404.506 320.591 404.482C320.439 404.458 320.282 404.467 320.134 404.507C319.693 404.595 319.283 404.78 318.941 405.047C318.591 405.295 318.327 405.629 318.18 406.009C317.986 406.538 318.295 407.211 319.104 408.022L322.533 411.447C323.141 412.062 323.518 412.836 323.61 413.658C323.714 414.587 323.591 415.525 323.25 416.406C322.862 417.447 322.286 418.422 321.547 419.293C320.712 420.276 319.719 421.14 318.601 421.855C317.417 422.623 316.104 423.212 314.712 423.599L313.86 425.929L310.753 426.518Z" fill="#FFE169"/>
<path d="M313.859 425.931L314.6 426.626L311.463 427.237L310.753 426.518L313.859 425.931Z" fill="#FAA925"/>
<defs>
<linearGradient id="paint0_linear" x1="337.431" y1="133.773" x2="268.317" y2="406.172" gradientUnits="userSpaceOnUse">
<stop stop-color="#FFADC2"/>
<stop offset="0.044" stop-color="#FAA7C4"/>
<stop offset="0.699" stop-color="#B758EA"/>
<stop offset="1" stop-color="#9D39FA"/>
</linearGradient>
<linearGradient id="paint1_linear" x1="222.042" y1="207.655" x2="191.477" y2="233.331" gradientUnits="userSpaceOnUse">
<stop stop-color="white"/>
<stop offset="1"/>
</linearGradient>
<radialGradient id="paint2_radial" cx="0" cy="0" r="1" gradientUnits="userSpaceOnUse" gradientTransform="translate(401.417 369.473) rotate(2.51335) scale(55.4288)">
<stop stop-color="#FFEEA9"/>
<stop offset="1" stop-color="#FFB048"/>
</radialGradient>
<radialGradient id="paint3_radial" cx="0" cy="0" r="1" gradientUnits="userSpaceOnUse" gradientTransform="translate(389.163 355.842) rotate(2.51335) scale(31.3859)">
<stop stop-color="#FFEEA9"/>
<stop offset="1" stop-color="#FFB048"/>
</radialGradient>
<linearGradient id="paint4_linear" x1="9.06848" y1="402.871" x2="12.0482" y2="404.59" gradientUnits="userSpaceOnUse">
<stop stop-color="#FCE559"/>
<stop offset="1" stop-color="#F6AA28"/>
</linearGradient>
<linearGradient id="paint5_linear" x1="98.1072" y1="632.037" x2="159.867" y2="615.889" gradientUnits="userSpaceOnUse">
<stop stop-color="#FCE559"/>
<stop offset="1" stop-color="#F6AA28"/>
</linearGradient>
<linearGradient id="paint6_linear" x1="81.2823" y1="234.326" x2="88.3635" y2="278.433" gradientUnits="userSpaceOnUse">
<stop stop-color="#FCE559"/>
<stop offset="1" stop-color="#F6AA28"/>
</linearGradient>
<linearGradient id="paint7_linear" x1="102.902" y1="239.95" x2="92.3243" y2="278.618" gradientUnits="userSpaceOnUse">
<stop stop-color="#FCE559"/>
<stop offset="1" stop-color="#F6AA28"/>
</linearGradient>
<linearGradient id="paint8_linear" x1="76.9024" y1="271.768" x2="81.8542" y2="236.815" gradientUnits="userSpaceOnUse">
<stop stop-color="#FCD835"/>
<stop offset="1" stop-color="#FAA925"/>
</linearGradient>
<linearGradient id="paint9_linear" x1="78.0262" y1="270.003" x2="82.4595" y2="238.844" gradientUnits="userSpaceOnUse">
<stop stop-color="#FFC533"/>
<stop offset="1" stop-color="#F8BA26"/>
</linearGradient>
<linearGradient id="paint10_linear" x1="-276.163" y1="491.242" x2="-249.234" y2="506.779" gradientUnits="userSpaceOnUse">
<stop stop-color="#FCD835"/>
<stop offset="1" stop-color="#FAA925"/>
</linearGradient>
<linearGradient id="paint11_linear" x1="31.5715" y1="566.053" x2="35.0116" y2="566.053" gradientUnits="userSpaceOnUse">
<stop stop-color="#FCE559"/>
<stop offset="1" stop-color="#F6AA28"/>
</linearGradient>
<linearGradient id="paint12_linear" x1="223.221" y1="720.051" x2="268.645" y2="675.199" gradientUnits="userSpaceOnUse">
<stop stop-color="#FCE559"/>
<stop offset="1" stop-color="#F6AA28"/>
</linearGradient>
<linearGradient id="paint13_linear" x1="9.88928" y1="383.976" x2="38.0653" y2="418.641" gradientUnits="userSpaceOnUse">
<stop stop-color="#FCE559"/>
<stop offset="1" stop-color="#F6AA28"/>
</linearGradient>
<linearGradient id="paint14_linear" x1="31.4262" y1="378.043" x2="41.5884" y2="416.822" gradientUnits="userSpaceOnUse">
<stop stop-color="#FCE559"/>
<stop offset="1" stop-color="#F6AA28"/>
</linearGradient>
<linearGradient id="paint15_linear" x1="24.8072" y1="418.596" x2="11.6285" y2="385.846" gradientUnits="userSpaceOnUse">
<stop stop-color="#FCD835"/>
<stop offset="1" stop-color="#FAA925"/>
</linearGradient>
<linearGradient id="paint16_linear" x1="24.8986" y1="416.505" x2="13.1665" y2="387.301" gradientUnits="userSpaceOnUse">
<stop stop-color="#FFC533"/>
<stop offset="1" stop-color="#F8BA26"/>
</linearGradient>
<linearGradient id="paint17_linear" x1="-171.322" y1="785.143" x2="-140.233" y2="785.143" gradientUnits="userSpaceOnUse">
<stop stop-color="#FCD835"/>
<stop offset="1" stop-color="#FAA925"/>
</linearGradient>
<linearGradient id="paint18_linear" x1="7.57151" y1="566.053" x2="11.0116" y2="566.053" gradientUnits="userSpaceOnUse">
<stop stop-color="#FCE559"/>
<stop offset="1" stop-color="#F6AA28"/>
</linearGradient>
<linearGradient id="paint19_linear" x1="198.73" y1="720.503" x2="244.154" y2="675.652" gradientUnits="userSpaceOnUse">
<stop stop-color="#FCE559"/>
<stop offset="1" stop-color="#F6AA28"/>
</linearGradient>
<linearGradient id="paint20_linear" x1="-14.1107" y1="383.976" x2="14.0653" y2="418.641" gradientUnits="userSpaceOnUse">
<stop stop-color="#FCE559"/>
<stop offset="1" stop-color="#F6AA28"/>
</linearGradient>
<linearGradient id="paint21_linear" x1="7.42621" y1="378.043" x2="17.5884" y2="416.822" gradientUnits="userSpaceOnUse">
<stop stop-color="#FCE559"/>
<stop offset="1" stop-color="#F6AA28"/>
</linearGradient>
<linearGradient id="paint22_linear" x1="0.807222" y1="418.596" x2="-12.3715" y2="385.846" gradientUnits="userSpaceOnUse">
<stop stop-color="#FCD835"/>
<stop offset="1" stop-color="#FAA925"/>
</linearGradient>
<linearGradient id="paint23_linear" x1="0.898635" y1="416.505" x2="-10.8335" y2="387.301" gradientUnits="userSpaceOnUse">
<stop stop-color="#FFC533"/>
<stop offset="1" stop-color="#F8BA26"/>
</linearGradient>
<linearGradient id="paint24_linear" x1="-195.322" y1="785.143" x2="-164.233" y2="785.143" gradientUnits="userSpaceOnUse">
<stop stop-color="#FCD835"/>
<stop offset="1" stop-color="#FAA925"/>
</linearGradient>
</defs>
</svg>
